<?xml version="1.0" encoding="UTF-8" standalone="no"?>
<!-- Created with Inkscape (http://www.inkscape.org/) -->

<svg
   xmlns:dc="http://purl.org/dc/elements/1.1/"
   xmlns:cc="http://creativecommons.org/ns#"
   xmlns:rdf="http://www.w3.org/1999/02/22-rdf-syntax-ns#"
   xmlns:svg="http://www.w3.org/2000/svg"
   xmlns="http://www.w3.org/2000/svg"
   xmlns:xlink="http://www.w3.org/1999/xlink"
   xmlns:sodipodi="http://sodipodi.sourceforge.net/DTD/sodipodi-0.dtd"
   xmlns:inkscape="http://www.inkscape.org/namespaces/inkscape"
   width="150"
   height="150"
   id="svg2"
   version="1.1"
   inkscape:version="0.48.4 r9939"
   inkscape:export-filename="C:\Users\leonardo\Dropbox\Projetos\iSeconds\iSeconds.Droid\Resources\drawable-xhdpi\ic_share.png"
   inkscape:export-xdpi="57.599998"
   inkscape:export-ydpi="57.599998"
   sodipodi:docname="drawing4.svg">
  <defs
     id="defs4">
    <linearGradient
       inkscape:collect="always"
       id="linearGradient3147">
      <stop
         style="stop-color:#d1dce2;stop-opacity:1;"
         offset="0"
         id="stop3149" />
      <stop
         style="stop-color:#ffffff;stop-opacity:1"
         offset="1"
         id="stop3151" />
    </linearGradient>
    <inkscape:path-effect
       effect="spiro"
       id="path-effect3045"
       is_visible="true" />
    <inkscape:path-effect
       effect="spiro"
       id="path-effect3041"
       is_visible="true" />
    <inkscape:path-effect
       effect="spiro"
       id="path-effect3037"
       is_visible="true" />
    <inkscape:path-effect
       effect="spiro"
       id="path-effect3033"
       is_visible="true" />
    <linearGradient
       inkscape:collect="always"
       xlink:href="#linearGradient3147"
       id="linearGradient3155"
       x1="85.105347"
       y1="48.984745"
       x2="14.89975"
       y2="115.65482"
       gradientUnits="userSpaceOnUse"
       gradientTransform="matrix(0.94160205,0,0,0.94160205,4.766881,906.61244)" />
  </defs>
  <sodipodi:namedview
     id="base"
     pagecolor="#ffffff"
     bordercolor="#666666"
     borderopacity="1.0"
     inkscape:pageopacity="0.0"
     inkscape:pageshadow="2"
     inkscape:zoom="3.959798"
     inkscape:cx="91.059691"
     inkscape:cy="80.400969"
     inkscape:document-units="px"
     inkscape:current-layer="layer1"
     showgrid="false"
     inkscape:window-width="1920"
     inkscape:window-height="1058"
     inkscape:window-x="1912"
     inkscape:window-y="-8"
     inkscape:window-maximized="1" />
  <metadata
     id="metadata7">
    <rdf:RDF>
      <cc:Work
         rdf:about="">
        <dc:format>image/svg+xml</dc:format>
        <dc:type
           rdf:resource="http://purl.org/dc/dcmitype/StillImage" />
        <dc:title></dc:title>
      </cc:Work>
    </rdf:RDF>
  </metadata>
  <g
     inkscape:label="Layer 1"
     inkscape:groupmode="layer"
     id="layer1"
     transform="translate(0,-902.36218)">
    <path
       style="fill:#4d4d4d;fill-opacity:1;stroke:none"
       d="m 105.19931,918.4919 c -0.49302,0.009 -1.01543,0.046 -1.56768,0.081 -2.7789,0.37423 -5.165571,0.83545 -7.784348,1.81094 -3.876528,1.63902 -7.577138,3.75554 -10.973771,6.24369 -1.501799,1.20859 -2.714829,2.66772 -3.729999,4.29761 -1.388247,1.8399 -2.27977,4.01869 -3.162393,6.13558 -0.359966,1.02954 -0.692132,2.05579 -0.864927,3.13537 -0.05426,0.33894 -0.05546,0.71493 -0.108117,1.05413 -0.316172,2.03652 -0.198524,0.13789 -0.27029,2.08123 -0.113121,1.13312 -0.07952,2.24844 0,3.37862 l -17.433698,12.24414 c -0.233246,-0.16956 -0.469343,-0.34008 -0.702754,-0.51355 l -0.621667,-0.43247 c -0.222172,-0.0936 -0.490138,-0.15772 -0.702754,-0.27029 -2.131122,-1.03813 -3.710334,-0.9785 -5.919348,-0.8379 -2.778901,0.37424 -5.165571,0.83545 -7.78435,1.81095 -3.876524,1.63901 -7.577138,3.75554 -10.973771,6.24369 -1.5018,1.20859 -2.714829,2.66772 -3.730001,4.29761 -1.388246,1.8399 -2.306799,4.01869 -3.189421,6.13558 -0.359966,1.02954 -0.665103,2.05579 -0.837898,3.13536 -0.05426,0.33895 -0.05546,0.71494 -0.108116,1.05414 -0.316173,2.03653 -0.198525,0.13789 -0.27029,2.08123 -0.177345,1.77644 -0.06003,3.53306 0.162174,5.29767 0.48555,1.77579 1.681859,3.19838 2.783986,4.62196 1.353391,1.24351 2.498849,2.69254 4.02732,3.73 1.279475,0.86269 2.708469,1.35976 4.162464,1.838 0.283619,0.0875 0.572927,0.1903 0.864928,0.24321 0.372194,0.0678 0.761209,0.0518 1.135217,0.1082 0.318042,0.048 0.629402,0.18634 0.946016,0.24321 0.899208,0.16139 1.823015,0.29105 2.729927,0.40545 0.286227,0.01 0.552679,-0.0254 0.837898,0 0.453051,0.0791 0.838799,0.15621 1.297393,0.18917 0.695977,0.0499 1.364833,0.01 2.054202,-0.0809 1.932073,-0.31459 3.767782,-1.02277 5.595002,-1.7028 3.298657,-1.05665 6.126487,-2.86977 9.081741,-4.64901 l 18.244569,13.83888 c -0.335037,0.7373 -0.664461,1.4763 -0.973044,2.2164 -0.359965,1.0296 -0.665103,2.0557 -0.837898,3.1353 -0.05426,0.3389 -0.05546,0.715 -0.108116,1.0541 -0.316173,2.0366 -0.198526,0.1377 -0.27029,2.0813 -0.177345,1.7764 -0.06003,3.533 0.162174,5.2977 0.48555,1.7756 1.681859,3.1983 2.783986,4.6219 1.353391,1.2435 2.498849,2.6927 4.02732,3.73 1.279474,0.8627 2.708469,1.3868 4.162464,1.865 0.283618,0.087 0.572927,0.1632 0.864928,0.2163 0.372195,0.068 0.761209,0.051 1.135217,0.1081 0.318042,0.048 0.629402,0.1864 0.946015,0.2433 0.899205,0.1613 1.823017,0.2909 2.729929,0.4054 0.286225,0 0.55268,-0.025 0.837898,0 0.45305,0.079 0.838793,0.1562 1.297392,0.1891 0.695972,0.05 1.364839,0.01 2.054203,-0.081 1.932079,-0.3147 3.767778,-1.0227 5.594998,-1.7028 3.61951,-1.1595 6.67299,-3.1945 9.94666,-5.1356 1.6141,-1.4719 3.04021,-3.1805 4.24356,-5.0003 1.25861,-1.6397 2.41605,-3.3626 3.43268,-5.1626 0.3358,-0.6855 0.64852,-1.3555 0.89196,-2.0812 0.0679,-0.2022 0.13784,-0.3961 0.21623,-0.5947 0.41722,-1.0562 0.28056,-0.261 0.32434,-1.2163 0.33835,-1.2316 0.09,-0.065 0.18921,-1.1892 0.0206,-0.233 0.12334,-0.4963 0.13514,-0.7298 0.0369,-0.7322 -0.20776,-1.4727 -0.32435,-2.1893 -0.15293,-0.8274 -0.13098,-0.7759 -0.13514,-0.7299 0.008,0 -0.002,-0.014 0,-0.027 -0.028,-0.026 -0.11818,-0.1868 -0.29731,-0.7838 -0.0865,-0.288 -0.0827,-0.5838 -0.18922,-0.8649 -0.1073,-0.283 -0.32759,-0.5384 -0.45949,-0.8109 -0.31728,-0.6554 -0.38895,-0.8581 -0.40543,-0.9189 0.0566,0.085 0.12171,0.1807 -0.48651,-0.9191 -1.48447,-2.16122 0.15805,0.1641 -1.54066,-2.00011 -0.27803,-0.35424 -0.5283,-0.75752 -0.81087,-1.10818 -0.83979,-1.04207 -1.76745,-1.99262 -2.72992,-2.91916 -0.30163,-0.25489 -0.62745,-0.51735 -0.919,-0.78383 -0.88563,-0.80931 -0.59388,-0.6715 -1.48659,-1.4055 -0.6581,-0.54102 -1.36993,-1.03217 -2.0542,-1.54066 l -0.62167,-0.43246 c -0.22217,-0.0936 -0.49013,-0.15777 -0.70275,-0.27029 -2.13114,-1.03818 -3.71033,-0.97845 -5.91935,-0.8379 -2.7789,0.37425 -5.165571,0.83539 -7.784348,1.81095 -1.342754,0.56771 -2.650898,1.21588 -3.946232,1.89203 L 69.412929,979.63148 c 0.06012,-0.15093 0.109682,-0.303 0.162174,-0.45949 0.06786,-0.20229 0.137845,-0.39619 0.216232,-0.59464 0.417228,-1.05626 0.280558,-0.28807 0.324348,-1.24333 0.338334,-1.23159 0.08986,-0.0382 0.189202,-1.16225 0.02059,-0.23293 0.123341,-0.49624 0.135146,-0.72978 0.037,-0.73219 -0.207763,-1.47274 -0.324348,-2.18935 -0.152932,-0.82736 -0.130995,-0.77589 -0.135146,-0.72979 0.0077,0.002 -0.0015,-0.0149 0,-0.027 -0.02798,-0.0263 -0.118182,-0.18689 -0.297318,-0.78385 -0.08641,-0.28799 -0.08262,-0.58377 -0.189203,-0.86492 -0.04234,-0.11166 -0.100655,-0.21818 -0.162174,-0.32435 l 18.866236,-11.59544 c 0.179633,0.0562 0.35256,0.10103 0.54058,0.13515 0.372195,0.0676 0.788237,0.0515 1.162246,0.10812 0.318042,0.0483 0.629403,0.18647 0.946015,0.24326 0.899206,0.16141 1.795988,0.29098 2.702899,0.40543 0.286226,0.006 0.55268,-0.0246 0.837899,0 0.453049,0.0791 0.838793,0.18328 1.297392,0.21623 0.695975,0.05 1.36483,-0.0223 2.054203,-0.10812 1.932073,-0.31452 3.767778,-1.02276 5.594998,-1.70281 3.61951,-1.15946 6.70003,-3.19437 9.9737,-5.13552 1.61408,-1.47189 3.01316,-3.18053 4.21652,-5.00036 1.25862,-1.63962 2.41607,-3.36263 3.43268,-5.16254 0.3358,-0.6854 0.67556,-1.35553 0.91899,-2.08123 0.0678,-0.20229 0.11082,-0.3962 0.1892,-0.59464 0.41723,-1.05626 0.30759,-0.26106 0.35138,-1.2163 0.33834,-1.23159 0.0629,-0.0653 0.16217,-1.18929 0.0206,-0.23293 0.12335,-0.49623 0.13514,-0.72977 0.0369,-0.73219 -0.18073,-1.47274 -0.29731,-2.18935 -0.15301,-0.82776 -0.15801,-0.77594 -0.16218,-0.72979 0.008,0.002 -0.002,-0.0149 0,-0.027 -0.028,-0.0263 -0.11819,-0.15986 -0.29731,-0.7568 -0.0865,-0.288 -0.0827,-0.61081 -0.18921,-0.89197 -0.10731,-0.28306 -0.30057,-0.53837 -0.43246,-0.81087 -0.31728,-0.65547 -0.38897,-0.85803 -0.40544,-0.91898 0.0566,0.0862 0.0947,0.1808 -0.51355,-0.91898 -1.48445,-2.16132 0.15805,0.16414 -1.54065,-2.00014 -0.27804,-0.35424 -0.5283,-0.75758 -0.81087,-1.1082 -0.83979,-1.04208 -1.76746,-1.99267 -2.72993,-2.91913 -0.30161,-0.25494 -0.62745,-0.51741 -0.91899,-0.78384 -0.88563,-0.80931 -0.59389,-0.67153 -1.48659,-1.4055 -0.65809,-0.5411 -1.3429,-1.03212 -2.02717,-1.54065 l -0.6487,-0.43248 c -0.22216,-0.0935 -0.46311,-0.15772 -0.67572,-0.27028 -1.59835,-0.7786 -2.89963,-0.94488 -4.3787,-0.91899 z"
       id="path3069"
       inkscape:connector-curvature="0" />
    <path
       sodipodi:type="arc"
       style="fill:#4d4d4d;fill-opacity:1;stroke:none"
       id="path3117"
       sodipodi:cx="34.345188"
       sodipodi:cy="66.914955"
       sodipodi:rx="28.284271"
       sodipodi:ry="28.284271"
       d="m 62.629459,66.914955 a 28.284271,28.284271 0 1 1 -56.5685421,0 28.284271,28.284271 0 1 1 56.5685421,0 z"
       transform="matrix(0.94160205,0,0,0.94160205,11.425013,911.13046)" />
    <path
       transform="matrix(0.94160205,0,0,0.94160205,69.445877,874.27294)"
       d="m 62.629459,66.914955 a 28.284271,28.284271 0 1 1 -56.5685421,0 28.284271,28.284271 0 1 1 56.5685421,0 z"
       sodipodi:ry="28.284271"
       sodipodi:rx="28.284271"
       sodipodi:cy="66.914955"
       sodipodi:cx="34.345188"
       id="path3132"
       style="fill:#4d4d4d;fill-opacity:1;stroke:none"
       sodipodi:type="arc" />
    <path
       sodipodi:type="arc"
       style="fill:#4d4d4d;fill-opacity:1;stroke:none"
       id="path3134"
       sodipodi:cx="34.345188"
       sodipodi:cy="66.914955"
       sodipodi:rx="28.284271"
       sodipodi:ry="28.284271"
       d="m 62.629459,66.914955 a 28.284271,28.284271 0 1 1 -56.5685421,0 28.284271,28.284271 0 1 1 56.5685421,0 z"
       transform="matrix(0.94160205,0,0,0.94160205,70.159248,952.2682)" />
    <path
       style="fill:url(#linearGradient3155);fill-opacity:1;stroke:none"
       d="m 100.42776,914.70434 c -11.433355,0.57955 -20.509266,10.05004 -20.509266,21.62742 0,3.59102 0.864837,6.96471 2.412856,9.94567 l -21.509722,13.88863 c -3.949971,-5.22883 -10.24382,-8.62154 -17.301938,-8.62154 -11.95085,0 -21.627422,9.67657 -21.627422,21.62742 0,11.95085 9.676572,21.65685 21.627422,21.65685 6.445967,0 12.24898,-2.8256 16.21321,-7.29742 l 23.1281,18.89093 c -1.576228,3.0019 -2.471704,6.4081 -2.471704,10.0339 0,11.9509 9.676571,21.6569 21.627414,21.6569 11.95086,0 21.65685,-9.706 21.65685,-21.6569 0,-11.9508 -9.70599,-21.62741 -21.65685,-21.62741 -3.408376,0 -6.636261,0.77366 -9.504288,2.17745 L 64.058385,980.02798 c 0.718284,-2.1533 1.118153,-4.46128 1.118153,-6.85604 0,-1.32187 -0.126093,-2.59822 -0.353102,-3.85468 l 25.305555,-14.62427 c 3.317959,2.06942 7.21849,3.26619 11.416919,3.26619 11.95085,0 21.62743,-9.67657 21.62743,-21.62742 0,-11.95085 -9.67658,-21.62742 -21.62743,-21.62742 -0.37346,0 -0.74933,-0.0187 -1.11815,0 z"
       id="path3136"
       inkscape:connector-curvature="0" />
  </g>
</svg>
