<?xml version="1.0" encoding="UTF-8" standalone="no"?>
<!-- Created with Inkscape (http://www.inkscape.org/) -->

<svg
   xmlns:dc="http://purl.org/dc/elements/1.1/"
   xmlns:cc="http://creativecommons.org/ns#"
   xmlns:rdf="http://www.w3.org/1999/02/22-rdf-syntax-ns#"
   xmlns:svg="http://www.w3.org/2000/svg"
   xmlns="http://www.w3.org/2000/svg"
   xmlns:xlink="http://www.w3.org/1999/xlink"
   xmlns:sodipodi="http://sodipodi.sourceforge.net/DTD/sodipodi-0.dtd"
   xmlns:inkscape="http://www.inkscape.org/namespaces/inkscape"
   width="128"
   height="128"
   id="svg2"
   version="1.1"
   inkscape:version="0.48.4 r9939"
   inkscape:export-filename="C:\Users\Leonardo\Dropbox\Projetos\iSeconds\iSeconds.Droid\Resources\drawable-xhdpi\ic_camera.png"
   inkscape:export-xdpi="67.5"
   inkscape:export-ydpi="67.5"
   sodipodi:docname="camera_icon.svg">
  <defs
     id="defs4">
    <linearGradient
       inkscape:collect="always"
       id="linearGradient3006">
      <stop
         style="stop-color:#999999;stop-opacity:1;"
         offset="0"
         id="stop3008" />
      <stop
         style="stop-color:#ffffff;stop-opacity:1"
         offset="1"
         id="stop3010" />
    </linearGradient>
    <linearGradient
       inkscape:collect="always"
       xlink:href="#linearGradient3006"
       id="linearGradient3012"
       x1="-3.1428571"
       y1="-5.1785712"
       x2="-4.1651783"
       y2="-5.34375"
       gradientUnits="userSpaceOnUse" />
  </defs>
  <sodipodi:namedview
     id="base"
     pagecolor="#ffffff"
     bordercolor="#666666"
     borderopacity="1.0"
     inkscape:pageopacity="0.0"
     inkscape:pageshadow="2"
     inkscape:zoom="3.959798"
     inkscape:cx="64.842968"
     inkscape:cy="66.355317"
     inkscape:document-units="px"
     inkscape:current-layer="g4540"
     showgrid="false"
     inkscape:window-width="1366"
     inkscape:window-height="715"
     inkscape:window-x="-8"
     inkscape:window-y="-8"
     inkscape:window-maximized="1" />
  <metadata
     id="metadata7">
    <rdf:RDF>
      <cc:Work
         rdf:about="">
        <dc:format>image/svg+xml</dc:format>
        <dc:type
           rdf:resource="http://purl.org/dc/dcmitype/StillImage" />
        <dc:title />
      </cc:Work>
    </rdf:RDF>
  </metadata>
  <g
     inkscape:label="Layer 1"
     inkscape:groupmode="layer"
     id="layer1"
     transform="translate(0,-924.36218)">
    <g
       transform="matrix(1.25,0,0,-1.25,335,572.36218)"
       inkscape:label="childish_cross"
       id="g2993">
      <g
         transform="scale(64,64)"
         id="g2995">
        <g
           id="g4540"
           transform="matrix(0.02092816,0,0,-0.02092816,-6.8459291,-1.5900514)">
          <rect
             ry="5.3143125"
             y="150.04341"
             x="135.73924"
             height="48.108513"
             width="59.725269"
             id="rect4512"
             style="fill:#07afde;fill-opacity:1;stroke:none" />
          <rect
             ry="2.5253813"
             y="146.00281"
             x="144.83061"
             height="7.0710678"
             width="9.8489876"
             id="rect4514"
             style="fill:#07afde;fill-opacity:1;stroke:none" />
          <path
             transform="translate(-132.83506,-29.546962)"
             d="m 323.62763,188.80803 c 0,2.3013 -1.86557,4.16688 -4.16688,4.16688 -2.3013,0 -4.16687,-1.86558 -4.16687,-4.16688 0,-2.3013 1.86557,-4.16688 4.16687,-4.16688 2.30131,0 4.16688,1.86558 4.16688,4.16688 z"
             sodipodi:ry="4.1668792"
             sodipodi:rx="4.1668792"
             sodipodi:cy="188.80803"
             sodipodi:cx="319.46075"
             id="path4516"
             style="fill:#ffffff;fill-opacity:1;stroke:none"
             sodipodi:type="arc" />
          <rect
             ry="6.4397225"
             y="160.27121"
             x="152.65926"
             height="27.779196"
             width="27.779196"
             id="rect4520"
             style="fill:#ffffff;fill-opacity:1;stroke:none" />
          <path
             transform="matrix(0.78294574,0,0,0.78294574,-67.796303,14.628547)"
             d="m 308.66071,203.52289 c 0,4.98042 -4.03743,9.01786 -9.01786,9.01786 -4.98042,0 -9.01785,-4.03744 -9.01785,-9.01786 0,-4.98043 4.03743,-9.01786 9.01785,-9.01786 4.98043,0 9.01786,4.03743 9.01786,9.01786 z"
             sodipodi:ry="9.0178576"
             sodipodi:rx="9.0178576"
             sodipodi:cy="203.52289"
             sodipodi:cx="299.64285"
             id="path4522"
             style="fill:none;stroke:#07afde;stroke-width:5;stroke-miterlimit:4;stroke-opacity:1;stroke-dasharray:none"
             sodipodi:type="arc" />
          <path
             sodipodi:nodetypes="ccccccccccccc"
             inkscape:connector-curvature="0"
             id="path4538"
             d="m 135.73638,160.04736 2.44559,0 c 1.4605,1e-5 3.02932,3.125 3.02932,6.05348 l 0,15.91251 c 0,4.0693 -1.65945,6.15901 -3.39225,6.15901 l -2.08266,0 0,-4.10714 1.66202,0 c 0.79189,0 1.61315,-1.86589 1.61315,-3.32589 l 0,-14.02839 c 0,-2.29195 -0.79473,-3.53858 -1.80455,-3.53858 l -1.47062,0 z"
             style="fill:#ffffff;stroke:none" />
        </g>
      </g>
    </g>
  </g>
</svg>
