<?xml version="1.0" encoding="UTF-8" standalone="no"?>
<!-- Generator: Adobe Illustrator 15.0.0, SVG Export Plug-In . SVG Version: 6.00 Build 0)  -->

<svg
   xmlns:dc="http://purl.org/dc/elements/1.1/"
   xmlns:cc="http://creativecommons.org/ns#"
   xmlns:rdf="http://www.w3.org/1999/02/22-rdf-syntax-ns#"
   xmlns:svg="http://www.w3.org/2000/svg"
   xmlns="http://www.w3.org/2000/svg"
   xmlns:sodipodi="http://sodipodi.sourceforge.net/DTD/sodipodi-0.dtd"
   xmlns:inkscape="http://www.inkscape.org/namespaces/inkscape"
   version="1.1"
   id="Logo"
   x="0px"
   y="0px"
   width="680.90961"
   height="723.4765"
   viewBox="0 0 680.90961 723.4765"
   enable-background="new 0 0 1000 1000"
   xml:space="preserve"
   inkscape:version="0.48.4 r9939"
   sodipodi:docname="yester_logo.svg"
   inkscape:export-filename="C:\Users\Leonardo\Dropbox\Projetos\Yester.Droid\Site\img\yester_logo.png"
   inkscape:export-xdpi="10.970619"
   inkscape:export-ydpi="10.970619"><metadata
   id="metadata42"><rdf:RDF><cc:Work
       rdf:about=""><dc:format>image/svg+xml</dc:format><dc:type
         rdf:resource="http://purl.org/dc/dcmitype/StillImage" /><dc:title></dc:title></cc:Work></rdf:RDF></metadata><defs
   id="defs40" /><sodipodi:namedview
   pagecolor="#ffffff"
   bordercolor="#666666"
   borderopacity="1"
   objecttolerance="10"
   gridtolerance="10"
   guidetolerance="10"
   inkscape:pageopacity="0"
   inkscape:pageshadow="2"
   inkscape:window-width="1366"
   inkscape:window-height="715"
   id="namedview38"
   showgrid="false"
   inkscape:snap-global="true"
   inkscape:snap-bbox="false"
   inkscape:bbox-nodes="false"
   inkscape:object-paths="true"
   inkscape:object-nodes="true"
   inkscape:snap-smooth-nodes="true"
   inkscape:snap-midpoints="true"
   inkscape:zoom="0.3337544"
   inkscape:cx="375.34862"
   inkscape:cy="556.53759"
   inkscape:window-x="-8"
   inkscape:window-y="-8"
   inkscape:window-maximized="1"
   inkscape:current-layer="Logo"
   fit-margin-top="0"
   fit-margin-left="0"
   fit-margin-right="0"
   fit-margin-bottom="0" />
<path
   d="m 644.61058,527.292 c -9.853,-9.798 -0.396,-29.745 1.532,-41.542 3.496,-21.353 -18.034,-22.804 -30.689,-10.568 -8.696,8.404 -12.408,28.533 -21.264,33.738 -0.408,-10.157 5.898,-31.764 -0.273,-40.134 -8.801,-11.942 -21.152,5.422 -23.234,12.155 -6.172,19.939 -10.969,41.592 -13.337,63.021 -0.192,0.162 -0.343,0.309 -0.559,0.478 -8.143,6.476 -16.921,12.27 -26.288,16.84 -15.593,7.612 -35.074,14.338 -45.419,-3.881 26.284,-7.061 62.405,-32.371 56.215,-64.165 -5.452,-27.99 -40.441,-32.117 -60.527,-17.587 -18.869,13.645 -30.077,41.427 -30.107,67.207 -17.761,14.445 -44.353,30.207 -56.931,14.729 -8.485,-10.434 -6.322,-30.053 -6.322,-42.343 0,-25.656 14.191,-36.26 17.979,-41.465 9.945,-5.217 35.722,0 47.121,0 10.103,0 15.89,-8.293 11.593,-18.396 -2.587,-6.057 -38.062,-6.284 -43.825,-4.174 14.927,-23.116 31.224,-51.56 19.654,-79.581 -10.252,-24.84 -33.241,-18.863 -46.42,-0.369 -14.357,20.124 -21.838,45.6 -27.193,69.459 -2.688,11.931 -13.121,6.941 -23.87,7.08 -6.773,0.085 -18.853,-0.639 -18.192,8.693 0.803,11.034 18.135,9.244 25.877,10.857 14.38,3.003 10.095,6.63 9.109,20.186 -1.371,18.723 -1.113,38.289 2.371,56.939 -13.155,7.977 -28.277,12.478 -40.57,21.606 3.199,-21.106 -5.987,-39.972 -5.987,-60.481 2.574,-9.459 31.542,-28.625 9.901,-37.473 -23.26,-9.463 -38.944,21.233 -50.103,36.237 -11.308,15.207 -22.66,29.203 -36.655,41.839 -20.515,16.343 -55.354,36.395 -69.68,11.199 26.3,-7.061 62.421,-32.371 56.217,-64.165 -5.442,-27.99 -40.441,-32.117 -60.527,-17.587 -20.163,14.568 -31.582,45.315 -29.95,72.489 -11.081,15.038 -23.693,29.568 -39.941996,38.65 4.445,-28.802 9.502996,-57.485 14.516996,-86.203 1.043,-5.964 8.699,-27.124 1.644,-31.667 -9.094,-5.836 -22.430996,1.656 -28.089996,9.021 -13.508,17.306 -7.317,95.897 -37.426,95.897 -22.026,0 -2.449,-65.855 -0.216,-77.537 1.598,-8.316 11.941,-26.65 -1.586,-30.6 -12.861,-3.751 -22.309,6.999 -27.014,17.286 C 5.1645839,506.943 -2.3324161,540.955 0.66358395,567.343 4.6985839,602.886 41.295584,605.347 64.070584,585.33 c -0.988,5.39 -1.963,10.765 -2.949,16.147 -24.144,21.052 -62.4990001,58.771 -59.8360001,93.93 1.588,22.065 23.0350001,30.758 42.7230001,27.355 22.557,-3.904 34.51,-25.088 39.657,-45.501 4.333,-17.217 4.709,-35.166 7.51,-52.638 2.45,-15.216 20.233996,-22.496 31.639996,-31.413 4.052,-3.153 13.269,-9.617 19.416,-16.386 7.666,13.337 20.992,22.389 41.044,22.389 20.083,0 40.192,-8.848 56.399,-21.483 0.476,0.885 0.972,2.078 1.484,3.642 7.748,23.478 42.031,20.313 60.756,16.647 23.634,-4.604 47.799,-13.756 67.319,-28.171 17.702,36.61 54.64,17.769 86.045,-0.466 6.703,17.311 20.956,29.831 44.546,29.831 20.604,0 40.067,-9.472 56.661,-21.584 2.595,12.905 11.6,33.423 24.348,17.702 5.444,-6.68 7.793,-16.501 10.684,-24.57 6.727,-18.75 13.448,-37.5 20.163,-56.234 0.716,0 1.433,0 2.145,0 1.54,28.306 21.014,47.621 49.978,35.59 11.547,-4.789 15.924,-14.619 17.106,-33.025 -5.087,7.797 -23.382,23.04 -36.299,10.2 z m -238.547,-132.735 c 4.778,-9.957 16.49,-15.309 16.49,-0.158 0,11.046 -6.915,23.124 -11.747,32.652 -5.413,10.649 -7.927,22.966 -20.697,21.668 4.07,-18.156 7.869,-37.276 15.954,-54.162 z M 38.820584,696.988 c -26.082,8.177 7.826,-48.119 20.482,-61.239 -0.862,0.484 -0.974,0.258 2.291,-2.063 -1.915,15.591 -3.663,57.245 -22.773,63.302 z M 196.15558,493.712 c 20.242,14.106 -16.638,41.881 -30.723,41.881 0,-9.899 11.182,-55.51 30.723,-41.881 z m 89.139,78.572 c -4.832,3.48 -11.906,5.544 -17.872,5.082 -6.374,-0.5 -9.177,-10.719 -14.982,-11.23 0.656,-0.689 1.314,-1.371 1.952,-2.064 3.787,-4.207 6.724,-6.109 7.394,-8.281 9.06,-9.536 18.134,-19.062 27.207,-28.59 3.708,11.987 8.084,36.598 -3.699,45.083 z m 227.425,-78.572 c 20.239,14.106 -16.641,41.881 -30.724,41.881 0,-9.899 11.181,-55.51 30.724,-41.881 z"
   id="path3"
   style="fill:#004b53;fill-opacity:1"
   inkscape:export-filename="C:\Users\Leonardo\Dropbox\Projetos\Yester\Site\img\yester_logo.png"
   inkscape:export-xdpi="11.2"
   inkscape:export-ydpi="11.2"
   inkscape:connector-curvature="0" />
<g
   id="g3039"
   inkscape:export-filename="C:\Users\Leonardo\Dropbox\Projetos\Yester\Site\img\yester_logo.png"
   inkscape:export-xdpi="11.2"
   inkscape:export-ydpi="11.2"
   transform="translate(-159.54842,-138.259)"><path
     inkscape:connector-curvature="0"
     id="path3037"
     d="m 782.341,198.924 -6.865,2.772 -23.88702,39.29976 0,95.86865 24.10702,30.56559 7.065,2.932 z"
     style="fill:#ffffff;stroke:none" /><path
     d="m 716.0954,289.14795 c 0,77.36021 -62.71285,140.07306 -140.07306,140.07306 -77.36022,0 -140.07306,-62.71285 -140.07306,-140.07306 0,-77.36022 62.71284,-140.07306 140.07306,-140.07306 77.36021,0 140.07306,62.71284 140.07306,140.07306 z"
     sodipodi:ry="140.07306"
     sodipodi:rx="140.07306"
     sodipodi:cy="289.14795"
     sodipodi:cx="576.02234"
     id="path3035"
     style="fill:#ffffff;fill-opacity:1;stroke:none"
     sodipodi:type="arc" /><g
     id="g3029"><path
       style="fill:#ffffff;stroke:none"
       d="m 197.958,314.496 -0.419,5.513 38.41295,21.38545 32.96505,4.65455 -0.606,-5.886 -25.24304,-14.68594 z"
       id="path3021"
       inkscape:connector-curvature="0" /><path
       style="fill:#ffffff;stroke:none"
       d="m 201.479,358.354 1.704,5.65 46.62644,10.34882 28.27456,1.26018 -2.668,-5.8 -38.34047,-9.6922 z"
       id="path3023"
       inkscape:connector-curvature="0" /><path
       style="fill:#ffffff;stroke:none"
       d="m 221.092,396.834 4.413,5.041 41.70898,0.13771 26.30902,-4.65571 -4.541,-5.034 -33.95022,-1.96283 z"
       id="path3025"
       inkscape:connector-curvature="0" /><path
       style="fill:#ffffff;stroke:none"
       d="m 260.129,426.367 7.174,3.013 33.54446,-7.505 12.37154,-9.533 -5.81,-3.521 -26.159,5.37391 z"
       id="path3027"
       inkscape:connector-curvature="0" /></g><g
     id="g5">
	<path
   id="path7"
   d="m 574.31,211.71 c -42.832,0 -77.547,34.718 -77.547,77.546 0,42.831 34.715,77.548 77.547,77.548 42.828,0 77.545,-34.718 77.545,-77.548 -10e-4,-42.827 -34.717,-77.546 -77.545,-77.546 z m 13.259,87.765 c -1.447,1.577 -4.62,4.297 -9.629,4.805 -0.612,0.062 -1.221,0.092 -1.81,0.092 -4.932,0 -8.309,-2.139 -10.438,-4.243 -0.304,-0.302 -0.581,-0.601 -0.84,-0.894 -0.974,-1.128 -4.131,-5.292 -3.676,-11.563 0.361,-4.934 3.392,-8.255 5.154,-9.791 1.968,-1.708 5.321,-3.739 10.134,-3.739 0.454,0 0.924,0.017 1.401,0.054 3.488,0.268 6.649,1.867 9.395,4.76 2.845,2.994 4.065,5.997 4.089,10.051 0.032,5.68 -2.64,9.218 -3.78,10.468 z"
   inkscape:connector-curvature="0"
   style="fill:#007682" />
	<path
   id="path9"
   d="m 540.98,167.213 c -67.293,18.097 -107.319,87.572 -89.222,154.865 18.099,67.296 87.573,107.321 154.868,89.224 C 673.918,393.204 713.947,323.73 695.848,256.436 677.75,189.141 608.275,149.114 540.98,167.213 z m -1.198,19.763 c 20.926,-7.45 40.156,-6.873 56.438,-4.052 -4.45,24.885 -9.379,49.535 -13.972,74.35 -4.79,-1.157 -11.246,-0.327 -17.21,1.794 -5.676,2.025 -10.915,5.215 -13.864,8.98 -5.078,-3.806 -9.906,-7.987 -14.784,-12.049 -14.568,-12.141 -29.156,-24.609 -43.861,-36.745 10.751,-12.801 25.993,-24.711 47.253,-32.278 z m 18.308,210.133 c -0.085,0.029 -0.166,0.057 -0.251,0.088 -17.76,-3.501 -34.065,-10.861 -48.18,-22.151 -14.031,-11.221 -26.859,-26.728 -34.825,-49.61 23.89,-8.502 47.773,-17.002 71.663,-25.501 5.001,13.912 14.977,19.285 25.923,21.424 -4.64,25.313 -9.498,50.526 -14.33,75.75 z m 25.969,-86.282 0,0 c -0.004,0.002 -0.004,0.002 -0.004,0.002 -7.343,2.614 -14.076,1.124 -18.942,-1.629 -4.397,-2.483 -9.151,-7.367 -11.111,-14.491 -1.74,-6.303 -0.316,-12.334 2.317,-17 2.507,-4.431 6.607,-8.391 12.563,-10.511 0.624,-0.221 1.264,-0.423 1.926,-0.604 6.099,-1.658 11.673,-0.351 16.146,1.921 4.566,2.312 8.74,5.92 11.119,12.498 2.349,6.491 1.641,12.566 -0.208,16.958 -1.871,4.42 -5.566,9.098 -11.388,11.854 -0.813,0.383 -1.622,0.719 -2.418,1.002 z m 97.683,1.985 c -3.681,17.807 -11.138,33.351 -22.469,47.296 -19.566,-16.218 -39.04,-32.641 -58.567,-48.961 6.638,-8.741 11.058,-18.528 6.229,-32.722 23.424,-8.337 46.848,-16.674 70.271,-25.006 8.102,22.087 8.132,42.038 4.536,59.393 z"
   inkscape:connector-curvature="0"
   style="fill:#009ba9" />
	<path
   id="path11"
   d="m 782.761,370.362 c 42.612,-88 4.204,-162.989 -0.42,-171.438 -4.146,8.037 -13.232,42.876 -13.232,85.344 -0.001,43.968 9.74,79.759 13.652,86.094 z"
   inkscape:connector-curvature="0"
   style="fill:#009ba9" />
	<linearGradient
   y2="207.4496"
   x2="521.49902"
   y1="442.9624"
   x1="521.49902"
   gradientUnits="userSpaceOnUse"
   id="SVGID_1_">
		<stop
   id="stop14"
   style="stop-color:#004A52"
   offset="0" />
		<stop
   id="stop16"
   style="stop-color:#004E57"
   offset="0.0801" />
		<stop
   id="stop18"
   style="stop-color:#00606A"
   offset="0.4561" />
		<stop
   id="stop20"
   style="stop-color:#006B76"
   offset="0.7761" />
		<stop
   id="stop22"
   style="stop-color:#006F7A"
   offset="1" />
	</linearGradient>
	<path
   id="path24"
   d="m 770.352,347.858 c -2.452,-11.375 -6.564,-34.764 -6.564,-63.59 0,-28.827 4.112,-52.214 6.564,-63.591 1.895,-8.774 3.611,-14.819 5.124,-18.981 l -50.675,28.368 v -73.18 c 0,-10.29 -8.339,-18.625 -18.622,-18.625 H 441.431 c -10.288,0 -18.625,8.336 -18.625,18.625 v 249.567 c -22.713,12.173 -54.53,23.231 -86.032,15.171 -8.888,-2.273 -16.68,-5.463 -23.555,-9.28 l -45.916,17.038 c 11.134,4.268 23.753,7.394 37.987,9.096 52.63,6.296 91.54,-4.729 117.516,-17.572 v 0.727 c 0,10.285 8.337,18.626 18.625,18.626 h 264.748 c 10.283,0 18.622,-8.341 18.622,-18.626 v -76.936 c 10.627,4.784 37.739,16.973 50.895,22.735 -1.567,-4.181 -3.358,-10.368 -5.344,-19.572 z m -196.55,75.762 c -74.202,0 -134.361,-60.157 -134.361,-134.364 0,-74.21 60.16,-134.363 134.361,-134.363 74.206,0 134.367,60.153 134.367,134.363 0,74.207 -60.161,134.364 -134.367,134.364 z"
   inkscape:connector-curvature="0"
   style="fill:url(#SVGID_1_)" />
	<g
   id="g26">
		<path
   id="path28"
   d="m 278.084,375.613 -74.901,-11.609 c 3.868,11.679 9.745,22.834 17.909,32.83 l 67.89,-4.511 c -4.428,-5.328 -8.02,-10.98 -10.898,-16.71 z"
   inkscape:connector-curvature="0"
   style="fill:#00606a" />
		<path
   id="path30"
   d="m 269.814,321.41 c -9.978,-9.978 -45.233,-46.122 -54.99,-58.182 -9.042,14.469 -15.015,32.414 -16.866,51.268 l 70.353,25.667 c -0.52,-7.741 0.127,-14.325 1.503,-18.753 z"
   inkscape:connector-curvature="0"
   style="fill:#00606a" />
	</g>
	<g
   id="g32">
		<path
   id="path34"
   d="m 268.917,346.049 -71.378,-26.04 c -0.699,12.74 0.51,25.776 3.94,38.345 l 73.937,11.459 c -3.426,-8.185 -5.488,-16.341 -6.499,-23.764 z"
   inkscape:connector-curvature="0"
   style="fill:#009ba9" />
		<path
   id="path36"
   d="m 293.523,397.357 -68.018,4.518 c 9.063,9.693 20.513,18.074 34.624,24.492 l 47.28,-17.546 c -5.243,-3.467 -9.851,-7.327 -13.886,-11.464 z"
   inkscape:connector-curvature="0"
   style="fill:#009ba9" />
	</g>
</g></g>
</svg>