<?xml version="1.0" encoding="UTF-8" standalone="no"?>
<!-- Created with Inkscape (http://www.inkscape.org/) -->

<svg
   xmlns:dc="http://purl.org/dc/elements/1.1/"
   xmlns:cc="http://creativecommons.org/ns#"
   xmlns:rdf="http://www.w3.org/1999/02/22-rdf-syntax-ns#"
   xmlns:svg="http://www.w3.org/2000/svg"
   xmlns="http://www.w3.org/2000/svg"
   xmlns:xlink="http://www.w3.org/1999/xlink"
   xmlns:sodipodi="http://sodipodi.sourceforge.net/DTD/sodipodi-0.dtd"
   xmlns:inkscape="http://www.inkscape.org/namespaces/inkscape"
   width="128"
   height="128"
   id="svg2"
   version="1.1"
   inkscape:version="0.48.4 r9939"
   inkscape:export-filename="C:\Users\Leonardo\Dropbox\Projetos\iSeconds\iSeconds.Droid\Resources\drawable-xhdpi\ic_camera.png"
   inkscape:export-xdpi="67.5"
   inkscape:export-ydpi="67.5"
   sodipodi:docname="camera_icon.svg">
  <defs
     id="defs4">
    <linearGradient
       inkscape:collect="always"
       id="linearGradient3006">
      <stop
         style="stop-color:#999999;stop-opacity:1;"
         offset="0"
         id="stop3008" />
      <stop
         style="stop-color:#ffffff;stop-opacity:1"
         offset="1"
         id="stop3010" />
    </linearGradient>
    <linearGradient
       inkscape:collect="always"
       xlink:href="#linearGradient3006"
       id="linearGradient3012"
       x1="-3.1428571"
       y1="-5.1785712"
       x2="-4.1651783"
       y2="-5.34375"
       gradientUnits="userSpaceOnUse" />
  </defs>
  <sodipodi:namedview
     id="base"
     pagecolor="#ffffff"
     bordercolor="#666666"
     borderopacity="1.0"
     inkscape:pageopacity="0.0"
     inkscape:pageshadow="2"
     inkscape:zoom="3.959798"
     inkscape:cx="25.447019"
     inkscape:cy="66.355317"
     inkscape:document-units="px"
     inkscape:current-layer="g4540"
     showgrid="false"
     inkscape:window-width="1920"
     inkscape:window-height="1028"
     inkscape:window-x="-8"
     inkscape:window-y="-8"
     inkscape:window-maximized="1" />
  <metadata
     id="metadata7">
    <rdf:RDF>
      <cc:Work
         rdf:about="">
        <dc:format>image/svg+xml</dc:format>
        <dc:type
           rdf:resource="http://purl.org/dc/dcmitype/StillImage" />
        <dc:title />
      </cc:Work>
    </rdf:RDF>
  </metadata>
  <g
     inkscape:label="Layer 1"
     inkscape:groupmode="layer"
     id="layer1"
     transform="translate(0,-924.36218)">
    <g
       transform="matrix(1.25,0,0,-1.25,335,572.36218)"
       inkscape:label="childish_cross"
       id="g2993">
      <g
         transform="scale(64,64)"
         id="g2995">
        <g
           id="g4540"
           transform="matrix(0.02092816,0,0,-0.02092816,-6.8459291,-1.5900514)">
          <g
             id="g3805"
             transform="matrix(1.0111173,0,0,1.0111173,12.918206,-92.703493)">
            <path
               sodipodi:nodetypes="ccccccccc"
               inkscape:connector-curvature="0"
               id="path3795"
               d="m 139.46429,246.82647 0,-9.10715 22.85714,0 0,9.10715 16.96428,0 0,40.53571 -56.07142,0 0,-40.53571 z"
               style="fill:none;stroke:#009ba9;stroke-width:3;stroke-linecap:butt;stroke-linejoin:miter;stroke-miterlimit:4;stroke-opacity:1;stroke-dasharray:none" />
            <path
               transform="matrix(2.8549521,0,0,2.8549521,-193.57605,-504.46047)"
               d="m 126.39534,270.25159 c 0,2.99867 -2.4309,5.42957 -5.42957,5.42957 -2.99867,0 -5.42957,-2.4309 -5.42957,-5.42957 0,-2.99867 2.4309,-5.42957 5.42957,-5.42957 2.99867,0 5.42957,2.4309 5.42957,5.42957 z"
               sodipodi:ry="5.4295697"
               sodipodi:rx="5.4295697"
               sodipodi:cy="270.25159"
               sodipodi:cx="120.96577"
               id="path3797"
               style="fill:none;stroke:#009ba9;stroke-width:1.05080569000000000;stroke-linecap:square;stroke-linejoin:round;stroke-miterlimit:4;stroke-opacity:1;stroke-dasharray:none"
               sodipodi:type="arc" />
            <path
               sodipodi:type="arc"
               style="fill:none;stroke:#009ba9;stroke-width:2.49783038999999980;stroke-linecap:square;stroke-linejoin:round;stroke-miterlimit:4;stroke-opacity:1;stroke-dasharray:none"
               id="path3801"
               sodipodi:cx="120.96577"
               sodipodi:cy="270.25159"
               sodipodi:rx="5.4295697"
               sodipodi:ry="5.4295697"
               d="m 126.39534,270.25159 c 0,2.99867 -2.4309,5.42957 -5.42957,5.42957 -2.99867,0 -5.42957,-2.4309 -5.42957,-5.42957 0,-2.99867 2.4309,-5.42957 5.42957,-5.42957 2.99867,0 5.42957,2.4309 5.42957,5.42957 z"
               transform="matrix(1.2010423,0,0,1.2010423,6.4904143,-57.488729)" />
            <path
               transform="matrix(1.9166666,0,0,1.9166666,-157.06819,-233.37802)"
               d="m 172.86235,254.59421 c 0,0.83684 -0.67839,1.51523 -1.51523,1.51523 -0.83684,0 -1.51523,-0.67839 -1.51523,-1.51523 0,-0.83684 0.67839,-1.51523 1.51523,-1.51523 0.83684,0 1.51523,0.67839 1.51523,1.51523 z"
               sodipodi:ry="1.5152289"
               sodipodi:rx="1.5152289"
               sodipodi:cy="254.59421"
               sodipodi:cx="171.34712"
               id="path3803"
               style="fill:#009ba9;fill-opacity:1;stroke:none;stroke-opacity:1"
               sodipodi:type="arc" />
          </g>
        </g>
      </g>
    </g>
  </g>
</svg>
