<?xml version="1.0" encoding="UTF-8" standalone="no"?>
<!-- Created with Inkscape (http://www.inkscape.org/) -->

<svg
   xmlns:dc="http://purl.org/dc/elements/1.1/"
   xmlns:cc="http://creativecommons.org/ns#"
   xmlns:rdf="http://www.w3.org/1999/02/22-rdf-syntax-ns#"
   xmlns:svg="http://www.w3.org/2000/svg"
   xmlns="http://www.w3.org/2000/svg"
   xmlns:xlink="http://www.w3.org/1999/xlink"
   xmlns:sodipodi="http://sodipodi.sourceforge.net/DTD/sodipodi-0.dtd"
   xmlns:inkscape="http://www.inkscape.org/namespaces/inkscape"
   width="480"
   height="800"
   id="svg2"
   version="1.1"
   inkscape:version="0.48.4 r9939"
   inkscape:export-filename="C:\Users\Leonardo\Dropbox\Projetos\Yester\iSeconds.Droid\Resources\drawable\splash_title.png"
   inkscape:export-xdpi="120"
   inkscape:export-ydpi="120"
   sodipodi:docname="splash_screen.svg">
  <defs
     id="defs4">
    <linearGradient
       inkscape:collect="always"
       id="linearGradient3006">
      <stop
         style="stop-color:#999999;stop-opacity:1;"
         offset="0"
         id="stop3008" />
      <stop
         style="stop-color:#ffffff;stop-opacity:1"
         offset="1"
         id="stop3010" />
    </linearGradient>
    <linearGradient
       inkscape:collect="always"
       xlink:href="#linearGradient3006"
       id="linearGradient3012"
       x1="-3.1428571"
       y1="-5.1785712"
       x2="-4.1651783"
       y2="-5.34375"
       gradientUnits="userSpaceOnUse" />
    <linearGradient
       gradientTransform="matrix(0.92045767,0,0,0.7923052,-0.30828569,-1.0792459)"
       inkscape:collect="always"
       xlink:href="#linearGradient3006-7"
       id="linearGradient3012-1"
       x1="-3.1154208"
       y1="-5.0112333"
       x2="-3.7502065"
       y2="-5.4234347"
       gradientUnits="userSpaceOnUse" />
    <linearGradient
       inkscape:collect="always"
       id="linearGradient3006-7">
      <stop
         style="stop-color:#d1dce2;stop-opacity:1"
         offset="0"
         id="stop3008-4" />
      <stop
         style="stop-color:#ffffff;stop-opacity:1"
         offset="1"
         id="stop3010-0" />
    </linearGradient>
    <linearGradient
       inkscape:collect="always"
       xlink:href="#linearGradient3180"
       id="linearGradient3066"
       gradientUnits="userSpaceOnUse"
       x1="107.07617"
       y1="918.76953"
       x2="22.475895"
       y2="1086.4548" />
    <linearGradient
       inkscape:collect="always"
       id="linearGradient3180">
      <stop
         style="stop-color:#d1dce2;stop-opacity:1"
         offset="0"
         id="stop3182" />
      <stop
         style="stop-color:#ffffff;stop-opacity:1"
         offset="1"
         id="stop3184" />
    </linearGradient>
    <linearGradient
       id="SVGID_1_"
       gradientUnits="userSpaceOnUse"
       x1="521.49902"
       y1="442.9624"
       x2="521.49902"
       y2="207.4496">
      <stop
         offset="0"
         style="stop-color:#004A52"
         id="stop14" />
      <stop
         offset="0.0801"
         style="stop-color:#004E57"
         id="stop16" />
      <stop
         offset="0.4561"
         style="stop-color:#00606A"
         id="stop18" />
      <stop
         offset="0.7761"
         style="stop-color:#006B76"
         id="stop20" />
      <stop
         offset="1"
         style="stop-color:#006F7A"
         id="stop22" />
    </linearGradient>
    <linearGradient
       inkscape:collect="always"
       xlink:href="#linearGradient3180"
       id="linearGradient3062"
       gradientUnits="userSpaceOnUse"
       x1="107.07617"
       y1="918.76953"
       x2="22.475895"
       y2="1086.4548" />
    <linearGradient
       inkscape:collect="always"
       xlink:href="#linearGradient3180"
       id="linearGradient3064"
       gradientUnits="userSpaceOnUse"
       x1="107.07617"
       y1="918.76953"
       x2="22.475895"
       y2="1086.4548" />
    <linearGradient
       y2="1086.4548"
       x2="22.475895"
       y1="918.76953"
       x1="107.07617"
       gradientUnits="userSpaceOnUse"
       id="linearGradient3072"
       xlink:href="#linearGradient3180"
       inkscape:collect="always" />
    <linearGradient
       id="SVGID_1_-1"
       gradientUnits="userSpaceOnUse"
       x1="521.49902"
       y1="442.9624"
       x2="521.49902"
       y2="207.4496">
      <stop
         offset="0"
         style="stop-color:#004A52"
         id="stop14-7" />
      <stop
         offset="0.0801"
         style="stop-color:#004E57"
         id="stop16-4" />
      <stop
         offset="0.4561"
         style="stop-color:#00606A"
         id="stop18-0" />
      <stop
         offset="0.7761"
         style="stop-color:#006B76"
         id="stop20-9" />
      <stop
         offset="1"
         style="stop-color:#006F7A"
         id="stop22-4" />
    </linearGradient>
    <linearGradient
       y2="207.4496"
       x2="521.49902"
       y1="442.9624"
       x1="521.49902"
       gradientUnits="userSpaceOnUse"
       id="SVGID_1_-17">
      <stop
         id="stop14-4"
         style="stop-color:#004A52"
         offset="0" />
      <stop
         id="stop16-0"
         style="stop-color:#004E57"
         offset="0.0801" />
      <stop
         id="stop18-9"
         style="stop-color:#00606A"
         offset="0.4561" />
      <stop
         id="stop20-4"
         style="stop-color:#006B76"
         offset="0.7761" />
      <stop
         id="stop22-8"
         style="stop-color:#006F7A"
         offset="1" />
    </linearGradient>
    <linearGradient
       inkscape:collect="always"
       xlink:href="#SVGID_1_-17"
       id="linearGradient3129"
       gradientUnits="userSpaceOnUse"
       x1="521.49902"
       y1="442.9624"
       x2="521.49902"
       y2="207.4496" />
  </defs>
  <sodipodi:namedview
     id="base"
     pagecolor="#ffffff"
     bordercolor="#666666"
     borderopacity="1.0"
     inkscape:pageopacity="0.0"
     inkscape:pageshadow="2"
     inkscape:zoom="0.35355339"
     inkscape:cx="61.460361"
     inkscape:cy="265.70226"
     inkscape:document-units="px"
     inkscape:current-layer="g2993"
     showgrid="false"
     inkscape:window-width="1366"
     inkscape:window-height="715"
     inkscape:window-x="-8"
     inkscape:window-y="-8"
     inkscape:window-maximized="1" />
  <metadata
     id="metadata7">
    <rdf:RDF>
      <cc:Work
         rdf:about="">
        <dc:format>image/svg+xml</dc:format>
        <dc:type
           rdf:resource="http://purl.org/dc/dcmitype/StillImage" />
        <dc:title></dc:title>
      </cc:Work>
    </rdf:RDF>
  </metadata>
  <g
     inkscape:label="Layer 1"
     inkscape:groupmode="layer"
     id="layer1"
     transform="translate(0,-252.36218)">
    <g
       transform="matrix(1.25,0,0,-1.25,335,572.36218)"
       inkscape:label="childish_cross"
       id="g2993">
      <g
         id="g3291"
         inkscape:export-filename="C:\Users\Leonardo\Dropbox\Projetos\Yester\iSeconds.Droid\Resources\drawable-xhdpi\splash_title.png"
         inkscape:export-xdpi="90"
         inkscape:export-ydpi="90"
         transform="matrix(0.75,0,0,0.83333333,-639.39406,415.74965)"
         style="fill:#ffffff">
        <rect
           style="fill:#ffffff;fill-opacity:1;stroke:none"
           id="rect3199"
           width="512"
           height="768"
           x="495.19208"
           y="191.69958"
           transform="scale(1,-1)" />
      </g>
      <g
         id="g3101"
         transform="matrix(0.83114164,0,0,0.83114164,-15.717977,-35.085975)">
        <path
           inkscape:export-ydpi="63.443661"
           inkscape:export-xdpi="63.443661"
           inkscape:export-filename="C:\Users\Leonardo\Google Drive\broditech\material_marketing\logo\yester_facebook.png"
           style="fill:#004b53;fill-opacity:1"
           id="path3"
           d="m 32.094339,-91.735506 c -3.389239,3.370313 -0.13622,10.231684 0.526971,14.28962 1.202558,7.345001 -6.203337,7.844118 -10.556399,3.635177 -2.991251,-2.890806 -4.268107,-9.814785 -7.3144,-11.605201 -0.140343,3.493807 2.028795,10.926188 -0.0939,13.805295 -3.027365,4.107809 -7.2758676,-1.865054 -7.9920306,-4.181075 -2.123046,-6.858614 -3.773119,-14.306816 -4.587665,-21.677971 -0.06607,-0.05572 -0.117981,-0.106282 -0.19228,-0.164419 -2.80103297,-2.227615 -5.820492,-4.22063 -9.042554,-5.79263 -5.3636804,-2.61837 -12.0647554,-4.93198 -15.6232234,1.33499 9.041172,2.428845 21.4660694,11.134986 19.3368384,22.071481 -1.875378,9.628004 -13.9108984,11.04761 -20.8200824,6.049582 -6.490564,-4.693608 -10.345889,-14.250062 -10.356205,-23.117873 -6.109433,-4.96879 -15.256548,-10.39061 -19.583132,-5.06648 -2.918666,3.58909 -2.174643,10.33763 -2.174643,14.565152 0,8.825148 4.881424,12.472711 6.184418,14.263126 3.420883,1.794547 12.287659,0 16.208689,0 3.475228,0 5.465838,2.852631 3.987752,6.327856 -0.889871,2.083488 -13.092559,2.161571 -15.074923,1.435779 5.13459,7.951437 10.74044,17.735614 6.760586,27.374273 -3.526486,8.54447 -11.434241,6.488502 -15.967552,0.12693 -4.938519,-6.922257 -7.511838,-15.685492 -9.35385,-23.892512 -0.92462,-4.104028 -4.513367,-2.387563 -8.210804,-2.435376 -2.329782,-0.02923 -6.485059,0.2198 -6.257691,-2.990216 0.276223,-3.795479 6.238085,-3.179753 8.901177,-3.734593 4.946434,-1.032972 3.472479,-2.280586 3.133316,-6.943585 -0.4716,-6.440333 -0.382853,-13.170651 0.815573,-19.585881 -4.525057,-2.743933 -9.726727,-4.292183 -13.955268,-7.432033 1.100391,7.260046 -2.05941,13.749576 -2.05941,20.804261 0.8854,3.253706 10.849818,9.846429 3.405747,12.889964 -8.000977,3.255078 -13.395967,-7.303728 -17.234427,-12.464804 -3.88974,-5.230903 -7.794607,-10.045249 -12.608607,-14.391787 -7.05675,-5.621664 -19.04067,-12.519154 -23.96853,-3.852224 9.04667,2.42884 21.47159,11.134972 19.33753,22.071476 -1.87194,9.628004 -13.9109,11.047602 -20.82008,6.049582 -6.93567,-5.011104 -10.86358,-15.587465 -10.30221,-24.934774 -3.81164,-5.172774 -8.14992,-10.170804 -13.73924,-13.294834 1.52898,9.90732 3.26883,19.773699 4.99355,29.65212 0.35877,2.051496 2.99228,9.330113 0.5655,10.892813 -3.12816,2.007465 -7.71581,-0.569626 -9.66239,-3.103047 -4.64649,-5.952912 -2.51691,-32.986656 -12.8738,-32.986656 -7.57651,0 -0.84241,22.652814 -0.0743,26.671184 0.54969,2.860537 4.10748,9.167068 -0.54555,10.52579 -4.42392,1.290267 -7.67384,-2.407516 -9.29227,-5.94604 -3.7769,-8.242795 -6.35572,-19.94224 -5.32516,-29.019194 1.38796,-12.22608 13.9766,-13.07262 21.81075,-6.18716 -0.33985,-1.85406 -0.67524,-3.70295 -1.0144,-5.55426 -8.30506,-7.24146 -21.49841,-20.21604 -20.58239,-32.31004 0.54623,-7.58992 7.92358,-10.58014 14.69586,-9.40958 7.75916,1.3429 11.87075,8.62977 13.64121,15.65144 1.49048,5.9223 1.61981,12.09641 2.5833,18.10642 0.84274,5.234 6.96008,7.73818 10.88352,10.80545 1.39381,1.08457 4.56427,3.30805 6.67872,5.63646 2.63695,-4.58766 7.22083,-7.70138 14.11832,-7.70138 6.90815,0 13.82525,3.04354 19.40013,7.38973 0.16374,-0.30442 0.33435,-0.71479 0.51047,-1.25277 2.66515,-8.07597 14.457827,-6.98727 20.898857,-5.72624 8.129627,1.58369 16.441903,4.73179 23.156398,9.69026 6.089132,-12.59311 18.795072,-6.11218 29.597765,0.1603 2.305696,-5.95464 7.20844,-10.26128 15.322931,-10.26128 7.087364,0 13.7822544,3.25819 19.4902544,7.42447 0.892629,-4.43906 3.990171,-11.49684 8.3752236,-6.08913 1.87263,2.29779 2.680644,5.67602 3.675084,8.45159 2.313959,6.44962 4.625849,12.899256 6.935678,19.343373 0.246285,0 0.492918,0 0.73783,0 0.529728,-9.736695 7.228402,-16.380673 17.191437,-12.242247 3.971939,1.647324 5.477537,5.028648 5.884127,11.359942 -1.74983,-2.682009 -8.042949,-7.925299 -12.486131,-3.508594 z m -82.055418,45.658193 c 1.643541,3.425005 5.672235,5.265991 5.672235,0.05431 0,-3.799605 -2.378622,-7.954194 -4.040733,-11.231637 -1.861965,-3.663045 -2.726734,-7.899849 -7.119355,-7.453361 1.399995,6.245306 2.706782,12.822198 5.487853,18.630652 z M -176.28535,-150.10756 c -8.97169,-2.81272 2.69198,16.55199 7.0454,21.065 -0.29652,-0.16648 -0.33504,-0.0887 0.78805,0.70964 -0.65872,-5.363 -1.26,-19.69115 -7.83345,-21.77464 z m 54.1201,69.922902 c 6.96285,-4.852182 -5.72314,-14.406227 -10.5681,-14.406227 0,3.405053 3.84638,19.094329 10.5681,14.406227 z m 30.662043,-27.027202 c -1.66211,-1.19706 -4.09543,-1.90703 -6.14761,-1.74811 -2.19253,0.17199 -3.156703,3.68712 -5.153513,3.8629 0.22566,0.237 0.45199,0.47159 0.67145,0.70997 1.30265,1.44713 2.312923,2.10138 2.543393,2.8485 3.11646,3.280199 6.23773,6.556947 9.35867,9.83439 1.27547,-4.123285 2.78073,-12.58898 -1.27239,-15.50765 z m 78.229666,27.027202 c 6.9618162,-4.852182 -5.72417,-14.406227 -10.568446,-14.406227 0,3.405053 3.846044,19.094329 10.568446,14.406227 z"
           inkscape:connector-curvature="0" />
        <g
           inkscape:export-ydpi="63.443661"
           inkscape:export-xdpi="63.443661"
           inkscape:export-filename="C:\Users\Leonardo\Google Drive\broditech\material_marketing\logo\yester_facebook.png"
           id="g3039"
           transform="matrix(0.34398007,0,0,-0.34398007,-244.52034,137.20077)">
          <path
             style="fill:#ffffff;stroke:none"
             d="m 782.341,198.924 -6.865,2.772 -23.88702,39.29976 0,95.86865 24.10702,30.56559 7.065,2.932 z"
             id="path3037"
             inkscape:connector-curvature="0" />
          <path
             sodipodi:type="arc"
             style="fill:#ffffff;fill-opacity:1;stroke:none"
             id="path3035"
             sodipodi:cx="576.02234"
             sodipodi:cy="289.14795"
             sodipodi:rx="140.07306"
             sodipodi:ry="140.07306"
             d="m 716.0954,289.14795 c 0,77.36021 -62.71285,140.07306 -140.07306,140.07306 -77.36022,0 -140.07306,-62.71285 -140.07306,-140.07306 0,-77.36022 62.71284,-140.07306 140.07306,-140.07306 77.36021,0 140.07306,62.71284 140.07306,140.07306 z" />
          <g
             id="g3029">
            <path
               inkscape:connector-curvature="0"
               id="path3021"
               d="m 197.958,314.496 -0.419,5.513 38.41295,21.38545 32.96505,4.65455 -0.606,-5.886 -25.24304,-14.68594 z"
               style="fill:#ffffff;stroke:none" />
            <path
               inkscape:connector-curvature="0"
               id="path3023"
               d="m 201.479,358.354 1.704,5.65 46.62644,10.34882 28.27456,1.26018 -2.668,-5.8 -38.34047,-9.6922 z"
               style="fill:#ffffff;stroke:none" />
            <path
               inkscape:connector-curvature="0"
               id="path3025"
               d="m 221.092,396.834 4.413,5.041 41.70898,0.13771 26.30902,-4.65571 -4.541,-5.034 -33.95022,-1.96283 z"
               style="fill:#ffffff;stroke:none" />
            <path
               inkscape:connector-curvature="0"
               id="path3027"
               d="m 260.129,426.367 7.174,3.013 33.54446,-7.505 12.37154,-9.533 -5.81,-3.521 -26.159,5.37391 z"
               style="fill:#ffffff;stroke:none" />
          </g>
          <g
             id="g5">
            <path
               d="m 574.31,211.71 c -42.832,0 -77.547,34.718 -77.547,77.546 0,42.831 34.715,77.548 77.547,77.548 42.828,0 77.545,-34.718 77.545,-77.548 -10e-4,-42.827 -34.717,-77.546 -77.545,-77.546 z m 13.259,87.765 c -1.447,1.577 -4.62,4.297 -9.629,4.805 -0.612,0.062 -1.221,0.092 -1.81,0.092 -4.932,0 -8.309,-2.139 -10.438,-4.243 -0.304,-0.302 -0.581,-0.601 -0.84,-0.894 -0.974,-1.128 -4.131,-5.292 -3.676,-11.563 0.361,-4.934 3.392,-8.255 5.154,-9.791 1.968,-1.708 5.321,-3.739 10.134,-3.739 0.454,0 0.924,0.017 1.401,0.054 3.488,0.268 6.649,1.867 9.395,4.76 2.845,2.994 4.065,5.997 4.089,10.051 0.032,5.68 -2.64,9.218 -3.78,10.468 z"
               id="path7"
               inkscape:connector-curvature="0"
               style="fill:#007682" />
            <path
               d="m 540.98,167.213 c -67.293,18.097 -107.319,87.572 -89.222,154.865 18.099,67.296 87.573,107.321 154.868,89.224 C 673.918,393.204 713.947,323.73 695.848,256.436 677.75,189.141 608.275,149.114 540.98,167.213 z m -1.198,19.763 c 20.926,-7.45 40.156,-6.873 56.438,-4.052 -4.45,24.885 -9.379,49.535 -13.972,74.35 -4.79,-1.157 -11.246,-0.327 -17.21,1.794 -5.676,2.025 -10.915,5.215 -13.864,8.98 -5.078,-3.806 -9.906,-7.987 -14.784,-12.049 -14.568,-12.141 -29.156,-24.609 -43.861,-36.745 10.751,-12.801 25.993,-24.711 47.253,-32.278 z m 18.308,210.133 c -0.085,0.029 -0.166,0.057 -0.251,0.088 -17.76,-3.501 -34.065,-10.861 -48.18,-22.151 -14.031,-11.221 -26.859,-26.728 -34.825,-49.61 23.89,-8.502 47.773,-17.002 71.663,-25.501 5.001,13.912 14.977,19.285 25.923,21.424 -4.64,25.313 -9.498,50.526 -14.33,75.75 z m 25.969,-86.282 0,0 c -0.004,0.002 -0.004,0.002 -0.004,0.002 -7.343,2.614 -14.076,1.124 -18.942,-1.629 -4.397,-2.483 -9.151,-7.367 -11.111,-14.491 -1.74,-6.303 -0.316,-12.334 2.317,-17 2.507,-4.431 6.607,-8.391 12.563,-10.511 0.624,-0.221 1.264,-0.423 1.926,-0.604 6.099,-1.658 11.673,-0.351 16.146,1.921 4.566,2.312 8.74,5.92 11.119,12.498 2.349,6.491 1.641,12.566 -0.208,16.958 -1.871,4.42 -5.566,9.098 -11.388,11.854 -0.813,0.383 -1.622,0.719 -2.418,1.002 z m 97.683,1.985 c -3.681,17.807 -11.138,33.351 -22.469,47.296 -19.566,-16.218 -39.04,-32.641 -58.567,-48.961 6.638,-8.741 11.058,-18.528 6.229,-32.722 23.424,-8.337 46.848,-16.674 70.271,-25.006 8.102,22.087 8.132,42.038 4.536,59.393 z"
               id="path9"
               inkscape:connector-curvature="0"
               style="fill:#009ba9" />
            <path
               d="m 782.761,370.362 c 42.612,-88 4.204,-162.989 -0.42,-171.438 -4.146,8.037 -13.232,42.876 -13.232,85.344 -0.001,43.968 9.74,79.759 13.652,86.094 z"
               id="path11"
               inkscape:connector-curvature="0"
               style="fill:#009ba9" />
            <linearGradient
               id="linearGradient3036"
               gradientUnits="userSpaceOnUse"
               x1="521.49902"
               y1="442.9624"
               x2="521.49902"
               y2="207.4496">
              <stop
                 offset="0"
                 style="stop-color:#004A52"
                 id="stop3038" />
              <stop
                 offset="0.0801"
                 style="stop-color:#004E57"
                 id="stop3040" />
              <stop
                 offset="0.4561"
                 style="stop-color:#00606A"
                 id="stop3042" />
              <stop
                 offset="0.7761"
                 style="stop-color:#006B76"
                 id="stop3044" />
              <stop
                 offset="1"
                 style="stop-color:#006F7A"
                 id="stop3046" />
            </linearGradient>
            <path
               d="m 770.352,347.858 c -2.452,-11.375 -6.564,-34.764 -6.564,-63.59 0,-28.827 4.112,-52.214 6.564,-63.591 1.895,-8.774 3.611,-14.819 5.124,-18.981 l -50.675,28.368 v -73.18 c 0,-10.29 -8.339,-18.625 -18.622,-18.625 H 441.431 c -10.288,0 -18.625,8.336 -18.625,18.625 v 249.567 c -22.713,12.173 -54.53,23.231 -86.032,15.171 -8.888,-2.273 -16.68,-5.463 -23.555,-9.28 l -45.916,17.038 c 11.134,4.268 23.753,7.394 37.987,9.096 52.63,6.296 91.54,-4.729 117.516,-17.572 v 0.727 c 0,10.285 8.337,18.626 18.625,18.626 h 264.748 c 10.283,0 18.622,-8.341 18.622,-18.626 v -76.936 c 10.627,4.784 37.739,16.973 50.895,22.735 -1.567,-4.181 -3.358,-10.368 -5.344,-19.572 z m -196.55,75.762 c -74.202,0 -134.361,-60.157 -134.361,-134.364 0,-74.21 60.16,-134.363 134.361,-134.363 74.206,0 134.367,60.153 134.367,134.363 0,74.207 -60.161,134.364 -134.367,134.364 z"
               id="path24"
               inkscape:connector-curvature="0"
               style="fill:url(#linearGradient3129)" />
            <g
               id="g26">
              <path
                 d="m 278.084,375.613 -74.901,-11.609 c 3.868,11.679 9.745,22.834 17.909,32.83 l 67.89,-4.511 c -4.428,-5.328 -8.02,-10.98 -10.898,-16.71 z"
                 id="path28"
                 inkscape:connector-curvature="0"
                 style="fill:#00606a" />
              <path
                 d="m 269.814,321.41 c -9.978,-9.978 -45.233,-46.122 -54.99,-58.182 -9.042,14.469 -15.015,32.414 -16.866,51.268 l 70.353,25.667 c -0.52,-7.741 0.127,-14.325 1.503,-18.753 z"
                 id="path30"
                 inkscape:connector-curvature="0"
                 style="fill:#00606a" />
            </g>
            <g
               id="g32">
              <path
                 d="m 268.917,346.049 -71.378,-26.04 c -0.699,12.74 0.51,25.776 3.94,38.345 l 73.937,11.459 c -3.426,-8.185 -5.488,-16.341 -6.499,-23.764 z"
                 id="path34"
                 inkscape:connector-curvature="0"
                 style="fill:#009ba9" />
              <path
                 d="m 293.523,397.357 -68.018,4.518 c 9.063,9.693 20.513,18.074 34.624,24.492 l 47.28,-17.546 c -5.243,-3.467 -9.851,-7.327 -13.886,-11.464 z"
                 id="path36"
                 inkscape:connector-curvature="0"
                 style="fill:#009ba9" />
            </g>
          </g>
        </g>
      </g>
      <path
         style="fill:#d15d3f;fill-opacity:1;stroke:none"
         d="m -98.072821,-15.199206 0,29.048313 25.576365,25.576365 29.079167,0 z"
         id="path3032"
         inkscape:connector-curvature="0"
         sodipodi:nodetypes="ccccc" />
      <text
         xml:space="preserve"
         style="font-size:25.82852173px;font-style:normal;font-variant:normal;font-weight:normal;font-stretch:normal;text-align:start;line-height:125%;letter-spacing:0px;word-spacing:0px;writing-mode:lr-tb;text-anchor:start;fill:#ffffff;fill-opacity:1;stroke:none;font-family:Calibri;-inkscape-font-specification:Calibri"
         x="-62.701477"
         y="-60.6637"
         id="text3028"
         sodipodi:linespacing="125%"
         transform="matrix(0.70710681,0.70710681,0.70710675,-0.70710675,0,0)"><tspan
           sodipodi:role="line"
           id="tspan3030"
           x="-62.701477"
           y="-60.6637">LITE</tspan></text>
    </g>
  </g>
</svg>
