<?xml version="1.0" encoding="UTF-8" standalone="no"?>
<!-- Created with Inkscape (http://www.inkscape.org/) -->

<svg
   xmlns:dc="http://purl.org/dc/elements/1.1/"
   xmlns:cc="http://creativecommons.org/ns#"
   xmlns:rdf="http://www.w3.org/1999/02/22-rdf-syntax-ns#"
   xmlns:svg="http://www.w3.org/2000/svg"
   xmlns="http://www.w3.org/2000/svg"
   xmlns:xlink="http://www.w3.org/1999/xlink"
   xmlns:sodipodi="http://sodipodi.sourceforge.net/DTD/sodipodi-0.dtd"
   xmlns:inkscape="http://www.inkscape.org/namespaces/inkscape"
   width="180"
   height="120"
   id="svg2"
   version="1.1"
   inkscape:version="0.48.4 r9939"
   sodipodi:docname="promotional_graphic.svg"
   inkscape:export-filename="C:\Users\Leonardo\Dropbox\Projetos\Yester.Droid\Glyphs\google play\promotional_graphic.png"
   inkscape:export-xdpi="90"
   inkscape:export-ydpi="90">
  <defs
     id="defs4">
    <linearGradient
       id="linearGradient3861">
      <stop
         style="stop-color:#ffffff;stop-opacity:1"
         offset="0"
         id="stop3863" />
      <stop
         id="stop3871"
         offset="0.63703787"
         style="stop-color:#f6f6f6;stop-opacity:1" />
      <stop
         style="stop-color:#c2c2c2;stop-opacity:1"
         offset="1"
         id="stop3865" />
    </linearGradient>
    <linearGradient
       y2="207.4496"
       x2="521.49902"
       y1="442.9624"
       x1="521.49902"
       gradientUnits="userSpaceOnUse"
       id="SVGID_1_">
      <stop
         id="stop14"
         style="stop-color:#004A52"
         offset="0" />
      <stop
         id="stop16"
         style="stop-color:#004E57"
         offset="0.0801" />
      <stop
         id="stop18"
         style="stop-color:#00606A"
         offset="0.4561" />
      <stop
         id="stop20"
         style="stop-color:#006B76"
         offset="0.7761" />
      <stop
         id="stop22"
         style="stop-color:#006F7A"
         offset="1" />
    </linearGradient>
    <linearGradient
       inkscape:collect="always"
       xlink:href="#SVGID_1_"
       id="linearGradient3850"
       gradientUnits="userSpaceOnUse"
       x1="521.49902"
       y1="442.9624"
       x2="521.49902"
       y2="207.4496" />
    <radialGradient
       inkscape:collect="always"
       xlink:href="#linearGradient3861"
       id="radialGradient3869"
       cx="133.41321"
       cy="992.36212"
       fx="133.41321"
       fy="992.36212"
       r="89.498474"
       gradientTransform="matrix(1.7350779,9.5260107e-7,3.2992178e-7,1.2420648,-138.54489,-240.21601)"
       gradientUnits="userSpaceOnUse" />
  </defs>
  <sodipodi:namedview
     id="base"
     pagecolor="#ffffff"
     bordercolor="#666666"
     borderopacity="1.0"
     inkscape:pageopacity="0.0"
     inkscape:pageshadow="2"
     inkscape:zoom="1.979899"
     inkscape:cx="104.8511"
     inkscape:cy="55.015687"
     inkscape:document-units="px"
     inkscape:current-layer="layer1"
     showgrid="false"
     inkscape:window-width="1366"
     inkscape:window-height="715"
     inkscape:window-x="-8"
     inkscape:window-y="-8"
     inkscape:window-maximized="1" />
  <metadata
     id="metadata7">
    <rdf:RDF>
      <cc:Work
         rdf:about="">
        <dc:format>image/svg+xml</dc:format>
        <dc:type
           rdf:resource="http://purl.org/dc/dcmitype/StillImage" />
        <dc:title />
      </cc:Work>
    </rdf:RDF>
  </metadata>
  <g
     inkscape:label="Layer 1"
     inkscape:groupmode="layer"
     id="layer1"
     transform="translate(0,-932.36218)">
    <rect
       style="fill:url(#radialGradient3869);fill-opacity:1;stroke:none"
       id="rect3859"
       width="184.0477"
       height="123.03754"
       x="-2.0238535"
       y="930.84338"
       ry="0" />
    <g
       transform="matrix(0.20428007,0,0,0.20428007,-32.848144,913.04316)"
       id="g3039"
       inkscape:export-filename="C:\Users\Leonardo\Dropbox\Projetos\Yester\Site\img\yester_logo.png"
       inkscape:export-xdpi="11.2"
       inkscape:export-ydpi="11.2">
      <path
         inkscape:connector-curvature="0"
         id="path3037"
         d="m 782.341,198.924 -6.865,2.772 -23.88702,39.29976 0,95.86865 24.10702,30.56559 7.065,2.932 z"
         style="fill:#ffffff;stroke:none" />
      <path
         d="m 716.0954,289.14795 c 0,77.36021 -62.71285,140.07306 -140.07306,140.07306 -77.36022,0 -140.07306,-62.71285 -140.07306,-140.07306 0,-77.36022 62.71284,-140.07306 140.07306,-140.07306 77.36021,0 140.07306,62.71284 140.07306,140.07306 z"
         sodipodi:ry="140.07306"
         sodipodi:rx="140.07306"
         sodipodi:cy="289.14795"
         sodipodi:cx="576.02234"
         id="path3035"
         style="fill:#ffffff;fill-opacity:1;stroke:none"
         sodipodi:type="arc" />
      <g
         id="g3029">
        <path
           style="fill:#ffffff;stroke:none"
           d="m 197.958,314.496 -0.419,5.513 38.41295,21.38545 32.96505,4.65455 -0.606,-5.886 -25.24304,-14.68594 z"
           id="path3021"
           inkscape:connector-curvature="0" />
        <path
           style="fill:#ffffff;stroke:none"
           d="m 201.479,358.354 1.704,5.65 46.62644,10.34882 28.27456,1.26018 -2.668,-5.8 -38.34047,-9.6922 z"
           id="path3023"
           inkscape:connector-curvature="0" />
        <path
           style="fill:#ffffff;stroke:none"
           d="m 221.092,396.834 4.413,5.041 41.70898,0.13771 26.30902,-4.65571 -4.541,-5.034 -33.95022,-1.96283 z"
           id="path3025"
           inkscape:connector-curvature="0" />
        <path
           style="fill:#ffffff;stroke:none"
           d="m 260.129,426.367 7.174,3.013 33.54446,-7.505 12.37154,-9.533 -5.81,-3.521 -26.159,5.37391 z"
           id="path3027"
           inkscape:connector-curvature="0" />
      </g>
      <g
         id="g5">
        <path
           style="fill:#007682"
           inkscape:connector-curvature="0"
           id="path7"
           d="m 574.31,211.71 c -42.832,0 -77.547,34.718 -77.547,77.546 0,42.831 34.715,77.548 77.547,77.548 42.828,0 77.545,-34.718 77.545,-77.548 -10e-4,-42.827 -34.717,-77.546 -77.545,-77.546 z m 13.259,87.765 c -1.447,1.577 -4.62,4.297 -9.629,4.805 -0.612,0.062 -1.221,0.092 -1.81,0.092 -4.932,0 -8.309,-2.139 -10.438,-4.243 -0.304,-0.302 -0.581,-0.601 -0.84,-0.894 -0.974,-1.128 -4.131,-5.292 -3.676,-11.563 0.361,-4.934 3.392,-8.255 5.154,-9.791 1.968,-1.708 5.321,-3.739 10.134,-3.739 0.454,0 0.924,0.017 1.401,0.054 3.488,0.268 6.649,1.867 9.395,4.76 2.845,2.994 4.065,5.997 4.089,10.051 0.032,5.68 -2.64,9.218 -3.78,10.468 z" />
        <path
           style="fill:#009ba9"
           inkscape:connector-curvature="0"
           id="path9"
           d="m 540.98,167.213 c -67.293,18.097 -107.319,87.572 -89.222,154.865 18.099,67.296 87.573,107.321 154.868,89.224 C 673.918,393.204 713.947,323.73 695.848,256.436 677.75,189.141 608.275,149.114 540.98,167.213 z m -1.198,19.763 c 20.926,-7.45 40.156,-6.873 56.438,-4.052 -4.45,24.885 -9.379,49.535 -13.972,74.35 -4.79,-1.157 -11.246,-0.327 -17.21,1.794 -5.676,2.025 -10.915,5.215 -13.864,8.98 -5.078,-3.806 -9.906,-7.987 -14.784,-12.049 -14.568,-12.141 -29.156,-24.609 -43.861,-36.745 10.751,-12.801 25.993,-24.711 47.253,-32.278 z m 18.308,210.133 c -0.085,0.029 -0.166,0.057 -0.251,0.088 -17.76,-3.501 -34.065,-10.861 -48.18,-22.151 -14.031,-11.221 -26.859,-26.728 -34.825,-49.61 23.89,-8.502 47.773,-17.002 71.663,-25.501 5.001,13.912 14.977,19.285 25.923,21.424 -4.64,25.313 -9.498,50.526 -14.33,75.75 z m 25.969,-86.282 0,0 c -0.004,0.002 -0.004,0.002 -0.004,0.002 -7.343,2.614 -14.076,1.124 -18.942,-1.629 -4.397,-2.483 -9.151,-7.367 -11.111,-14.491 -1.74,-6.303 -0.316,-12.334 2.317,-17 2.507,-4.431 6.607,-8.391 12.563,-10.511 0.624,-0.221 1.264,-0.423 1.926,-0.604 6.099,-1.658 11.673,-0.351 16.146,1.921 4.566,2.312 8.74,5.92 11.119,12.498 2.349,6.491 1.641,12.566 -0.208,16.958 -1.871,4.42 -5.566,9.098 -11.388,11.854 -0.813,0.383 -1.622,0.719 -2.418,1.002 z m 97.683,1.985 c -3.681,17.807 -11.138,33.351 -22.469,47.296 -19.566,-16.218 -39.04,-32.641 -58.567,-48.961 6.638,-8.741 11.058,-18.528 6.229,-32.722 23.424,-8.337 46.848,-16.674 70.271,-25.006 8.102,22.087 8.132,42.038 4.536,59.393 z" />
        <path
           style="fill:#009ba9"
           inkscape:connector-curvature="0"
           id="path11"
           d="m 782.761,370.362 c 42.612,-88 4.204,-162.989 -0.42,-171.438 -4.146,8.037 -13.232,42.876 -13.232,85.344 -0.001,43.968 9.74,79.759 13.652,86.094 z" />
        <linearGradient
           y2="207.4496"
           x2="521.49902"
           y1="442.9624"
           x1="521.49902"
           gradientUnits="userSpaceOnUse"
           id="linearGradient3038">
          <stop
             id="stop3040"
             style="stop-color:#004A52"
             offset="0" />
          <stop
             id="stop3042"
             style="stop-color:#004E57"
             offset="0.0801" />
          <stop
             id="stop3044"
             style="stop-color:#00606A"
             offset="0.4561" />
          <stop
             id="stop3046"
             style="stop-color:#006B76"
             offset="0.7761" />
          <stop
             id="stop3048"
             style="stop-color:#006F7A"
             offset="1" />
        </linearGradient>
        <path
           style="fill:url(#linearGradient3850)"
           inkscape:connector-curvature="0"
           id="path24"
           d="m 770.352,347.858 c -2.452,-11.375 -6.564,-34.764 -6.564,-63.59 0,-28.827 4.112,-52.214 6.564,-63.591 1.895,-8.774 3.611,-14.819 5.124,-18.981 l -50.675,28.368 v -73.18 c 0,-10.29 -8.339,-18.625 -18.622,-18.625 H 441.431 c -10.288,0 -18.625,8.336 -18.625,18.625 v 249.567 c -22.713,12.173 -54.53,23.231 -86.032,15.171 -8.888,-2.273 -16.68,-5.463 -23.555,-9.28 l -45.916,17.038 c 11.134,4.268 23.753,7.394 37.987,9.096 52.63,6.296 91.54,-4.729 117.516,-17.572 v 0.727 c 0,10.285 8.337,18.626 18.625,18.626 h 264.748 c 10.283,0 18.622,-8.341 18.622,-18.626 v -76.936 c 10.627,4.784 37.739,16.973 50.895,22.735 -1.567,-4.181 -3.358,-10.368 -5.344,-19.572 z m -196.55,75.762 c -74.202,0 -134.361,-60.157 -134.361,-134.364 0,-74.21 60.16,-134.363 134.361,-134.363 74.206,0 134.367,60.153 134.367,134.363 0,74.207 -60.161,134.364 -134.367,134.364 z" />
        <g
           id="g26">
          <path
             style="fill:#00606a"
             inkscape:connector-curvature="0"
             id="path28"
             d="m 278.084,375.613 -74.901,-11.609 c 3.868,11.679 9.745,22.834 17.909,32.83 l 67.89,-4.511 c -4.428,-5.328 -8.02,-10.98 -10.898,-16.71 z" />
          <path
             style="fill:#00606a"
             inkscape:connector-curvature="0"
             id="path30"
             d="m 269.814,321.41 c -9.978,-9.978 -45.233,-46.122 -54.99,-58.182 -9.042,14.469 -15.015,32.414 -16.866,51.268 l 70.353,25.667 c -0.52,-7.741 0.127,-14.325 1.503,-18.753 z" />
        </g>
        <g
           id="g32">
          <path
             style="fill:#009ba9"
             inkscape:connector-curvature="0"
             id="path34"
             d="m 268.917,346.049 -71.378,-26.04 c -0.699,12.74 0.51,25.776 3.94,38.345 l 73.937,11.459 c -3.426,-8.185 -5.488,-16.341 -6.499,-23.764 z" />
          <path
             style="fill:#009ba9"
             inkscape:connector-curvature="0"
             id="path36"
             d="m 293.523,397.357 -68.018,4.518 c 9.063,9.693 20.513,18.074 34.624,24.492 l 47.28,-17.546 c -5.243,-3.467 -9.851,-7.327 -13.886,-11.464 z" />
        </g>
      </g>
    </g>
    <path
       inkscape:connector-curvature="0"
       d="m 167.29889,1018.1749 c -1.52674,-1.5182 -0.0613,-4.6091 0.23738,-6.437 0.54173,-3.3087 -2.79442,-3.5334 -4.75536,-1.6376 -1.34746,1.3023 -1.92265,4.4214 -3.29492,5.2278 -0.0632,-1.5739 0.9139,-4.9217 -0.0422,-6.2187 -1.36375,-1.8506 -3.27756,0.8401 -3.60017,1.8833 -0.95639,3.0898 -1.6997,6.445 -2.06661,9.7654 -0.0296,0.026 -0.0532,0.047 -0.0865,0.074 -1.26179,1.0039 -2.62196,1.9015 -4.07342,2.6097 -2.41618,1.1795 -5.43483,2.2217 -7.03781,-0.6014 4.0728,-1.0941 9.66985,-5.0161 8.71069,-9.9426 -0.8448,-4.3371 -6.26645,-4.9767 -9.37884,-2.7251 -2.92383,2.1144 -4.66053,6.4191 -4.66519,10.4139 -2.75213,2.2383 -6.87263,4.6807 -8.82165,2.2824 -1.31477,-1.6167 -0.97959,-4.6567 -0.97959,-6.5613 0,-3.9754 2.19893,-5.6186 2.78588,-6.4251 1.54103,-0.8083 5.53526,0 7.30158,0 1.56548,0 2.46219,-1.2849 1.79636,-2.8504 -0.40086,-0.9387 -5.89783,-0.9738 -6.79083,-0.6467 2.313,-3.582 4.83827,-7.98946 3.04546,-12.33143 -1.5886,-3.8489 -5.1508,-2.92271 -7.19294,-0.0569 -2.22466,3.11828 -3.38387,7.06592 -4.21363,10.76262 -0.41651,1.8491 -2.03315,1.0757 -3.69874,1.0972 -1.04951,0.012 -2.92134,-0.098 -2.81891,1.3473 0.12442,1.7095 2.81007,1.4321 4.00972,1.682 2.22824,0.4652 1.56425,1.0275 1.41147,3.1278 -0.21244,2.9013 -0.17246,5.9332 0.3674,8.823 -2.03843,1.2361 -4.38162,1.9335 -6.28646,3.348 0.49569,-3.2706 -0.92771,-6.1938 -0.92771,-9.3719 0.39886,-1.4655 4.88754,-4.4354 1.53421,-5.8063 -3.60422,-1.4665 -6.0345,3.2898 -7.76363,5.615 -1.75221,2.3563 -3.51124,4.525 -5.67982,6.4831 -3.17886,2.5322 -8.577269,5.6395 -10.797127,1.7352 4.075271,-1.0942 9.672337,-5.016 8.711007,-9.9426 -0.84325,-4.3371 -6.266465,-4.9766 -9.37885,-2.7252 -3.124323,2.2574 -4.89373,7.0218 -4.64085,11.2325 -1.717033,2.3302 -3.671303,4.5816 -6.189139,5.9889 0.688764,-4.463 1.472517,-8.9074 2.249451,-13.3575 0.16162,-0.924 1.347939,-4.2026 0.254748,-4.9069 -1.409144,-0.9042 -3.475762,0.2567 -4.35264,1.3981 -2.093108,2.6816 -1.133792,14.8593 -5.799273,14.8593 -3.413002,0 -0.379479,-10.2043 -0.03345,-12.0145 0.247611,-1.2886 1.850298,-4.1295 -0.245754,-4.7417 -1.992859,-0.5811 -3.456857,1.0845 -4.185909,2.6786 -1.701387,3.7131 -2.863077,8.9835 -2.398836,13.0723 0.625243,5.5077 6.296064,5.8888 9.825125,2.7872 -0.1531,0.8351 -0.304174,1.6679 -0.456957,2.502 -3.741192,3.2621 -9.684426,9.1067 -9.271787,14.5547 0.246074,3.419 3.569351,4.766 6.620069,4.2387 3.495282,-0.6048 5.347432,-3.8872 6.144981,-7.0503 0.671405,-2.6679 0.729672,-5.4492 1.163697,-8.1565 0.379634,-2.3579 3.135323,-3.4858 4.902714,-4.8677 0.627868,-0.4884 2.056079,-1.49 3.008573,-2.5388 1.187875,2.0665 3.252783,3.4691 6.359903,3.4691 3.111914,0 6.227872,-1.3712 8.739202,-3.3287 0.0737,0.1369 0.15061,0.322 0.22995,0.5642 1.20057,3.6379 6.51284,3.1476 9.41433,2.5795 3.66217,-0.7133 7.40662,-2.1316 10.43132,-4.3651 2.74296,5.6727 8.46661,2.7533 13.33292,-0.072 1.03866,2.6823 3.2472,4.6223 6.90255,4.6223 3.19266,0 6.20851,-1.4676 8.77982,-3.3443 0.40208,1.9997 1.79746,5.1787 3.77278,2.7428 0.84358,-1.0352 1.20757,-2.5566 1.65551,-3.807 1.04237,-2.9055 2.08383,-5.811 3.12433,-8.7136 0.11096,0 0.22203,0 0.33238,0 0.23862,4.3859 3.25617,7.3787 7.74425,5.5145 1.78925,-0.742 2.46748,-2.2652 2.65064,-5.1174 -0.78825,1.2083 -3.6231,3.5704 -5.62466,1.5807 z m -36.96361,-20.56765 c 0.74037,-1.54275 2.55517,-2.37224 2.55517,-0.0254 0,1.71162 -1.07149,3.5829 -1.82023,5.0593 -0.83877,1.6502 -1.22833,3.5589 -3.20709,3.3577 0.63069,-2.8134 1.21935,-5.7761 2.47215,-8.39268 z M 73.4298,1044.4699 c -4.041491,1.267 1.212661,-7.4561 3.173749,-9.4891 -0.13357,0.075 -0.150926,0.04 0.354994,-0.3197 -0.296738,2.416 -0.567587,8.8704 -3.528743,9.8088 z m 24.379549,-31.4983 c 3.136571,2.186 -2.578106,6.4897 -4.760617,6.4897 0,-1.5339 1.732683,-8.6017 4.760617,-6.4897 z m 13.812381,12.1751 c -0.74873,0.5391 -1.84487,0.8591 -2.76932,0.7875 -0.98769,-0.078 -1.42201,-1.6609 -2.32151,-1.7402 0.1017,-0.106 0.2036,-0.2125 0.30247,-0.32 0.5868,-0.6517 1.04189,-0.9466 1.14573,-1.283 1.40386,-1.4776 2.80991,-2.9538 4.21581,-4.4301 0.57455,1.8574 1.25263,5.671 -0.57318,6.9858 z m 35.24023,-12.1751 c 3.13608,2.186 -2.57856,6.4897 -4.76076,6.4897 0,-1.5339 1.73252,-8.6017 4.76076,-6.4897 z"
       id="path3"
       style="fill:#005059;fill-opacity:1;stroke:none"
       inkscape:export-filename="C:\Users\Leonardo\Dropbox\Projetos\Yester\Site\img\yester_logo.png"
       inkscape:export-xdpi="11.2"
       inkscape:export-ydpi="11.2" />
  </g>
</svg>
