<?xml version="1.0" encoding="UTF-8" standalone="no"?>
<!-- Created with Inkscape (http://www.inkscape.org/) -->

<svg
   xmlns:dc="http://purl.org/dc/elements/1.1/"
   xmlns:cc="http://creativecommons.org/ns#"
   xmlns:rdf="http://www.w3.org/1999/02/22-rdf-syntax-ns#"
   xmlns:svg="http://www.w3.org/2000/svg"
   xmlns="http://www.w3.org/2000/svg"
   xmlns:xlink="http://www.w3.org/1999/xlink"
   xmlns:sodipodi="http://sodipodi.sourceforge.net/DTD/sodipodi-0.dtd"
   xmlns:inkscape="http://www.inkscape.org/namespaces/inkscape"
   width="128"
   height="128"
   id="svg2"
   version="1.1"
   inkscape:version="0.48.4 r9939"
   inkscape:export-filename="C:\Users\leonardo\Dropbox\Projetos\iSecondsTwo\iSeconds.Droid\Resources\drawable-xhdpi\ic_play.png"
   inkscape:export-xdpi="57.599998"
   inkscape:export-ydpi="57.599998"
   sodipodi:docname="yester_icon_lilte.svg">
  <defs
     id="defs4">
    <linearGradient
       inkscape:collect="always"
       id="linearGradient3180">
      <stop
         style="stop-color:#d1dce2;stop-opacity:1"
         offset="0"
         id="stop3182" />
      <stop
         style="stop-color:#ffffff;stop-opacity:1"
         offset="1"
         id="stop3184" />
    </linearGradient>
    <linearGradient
       inkscape:collect="always"
       xlink:href="#linearGradient3180"
       id="linearGradient3186"
       x1="107.07617"
       y1="918.76953"
       x2="22.475895"
       y2="1086.4548"
       gradientUnits="userSpaceOnUse" />
    <linearGradient
       inkscape:collect="always"
       xlink:href="#linearGradient3180"
       id="linearGradient3005"
       gradientUnits="userSpaceOnUse"
       x1="107.07617"
       y1="918.76953"
       x2="22.475895"
       y2="1086.4548" />
    <linearGradient
       inkscape:collect="always"
       xlink:href="#linearGradient3180"
       id="linearGradient3770"
       gradientUnits="userSpaceOnUse"
       x1="107.07617"
       y1="918.76953"
       x2="22.475895"
       y2="1086.4548" />
    <linearGradient
       inkscape:collect="always"
       xlink:href="#linearGradient3180"
       id="linearGradient3783"
       gradientUnits="userSpaceOnUse"
       x1="107.07617"
       y1="918.76953"
       x2="22.475895"
       y2="1086.4548" />
    <linearGradient
       inkscape:collect="always"
       xlink:href="#linearGradient3180"
       id="linearGradient3002"
       gradientUnits="userSpaceOnUse"
       x1="107.07617"
       y1="918.76953"
       x2="22.475895"
       y2="1086.4548" />
    <linearGradient
       inkscape:collect="always"
       xlink:href="#linearGradient3180"
       id="linearGradient3792"
       gradientUnits="userSpaceOnUse"
       x1="107.07617"
       y1="918.76953"
       x2="22.475895"
       y2="1086.4548" />
    <linearGradient
       inkscape:collect="always"
       xlink:href="#linearGradient3180"
       id="linearGradient3787"
       gradientUnits="userSpaceOnUse"
       x1="107.07617"
       y1="918.76953"
       x2="22.475895"
       y2="1086.4548" />
    <linearGradient
       id="SVGID_1_"
       gradientUnits="userSpaceOnUse"
       x1="521.49902"
       y1="442.9624"
       x2="521.49902"
       y2="207.4496">
      <stop
         offset="0"
         style="stop-color:#004A52"
         id="stop14" />
      <stop
         offset="0.0801"
         style="stop-color:#004E57"
         id="stop16" />
      <stop
         offset="0.4561"
         style="stop-color:#00606A"
         id="stop18" />
      <stop
         offset="0.7761"
         style="stop-color:#006B76"
         id="stop20" />
      <stop
         offset="1"
         style="stop-color:#006F7A"
         id="stop22" />
    </linearGradient>
    <linearGradient
       inkscape:collect="always"
       xlink:href="#linearGradient3180"
       id="linearGradient3062"
       gradientUnits="userSpaceOnUse"
       x1="107.07617"
       y1="918.76953"
       x2="22.475895"
       y2="1086.4548" />
    <linearGradient
       inkscape:collect="always"
       xlink:href="#linearGradient3180"
       id="linearGradient3064"
       gradientUnits="userSpaceOnUse"
       x1="107.07617"
       y1="918.76953"
       x2="22.475895"
       y2="1086.4548" />
    <linearGradient
       inkscape:collect="always"
       xlink:href="#linearGradient3180"
       id="linearGradient3066"
       gradientUnits="userSpaceOnUse"
       x1="107.07617"
       y1="918.76953"
       x2="22.475895"
       y2="1086.4548" />
    <linearGradient
       inkscape:collect="always"
       xlink:href="#SVGID_1_"
       id="linearGradient3108"
       gradientUnits="userSpaceOnUse"
       x1="521.49902"
       y1="442.9624"
       x2="521.49902"
       y2="207.4496" />
    <linearGradient
       inkscape:collect="always"
       xlink:href="#linearGradient3180"
       id="linearGradient3110"
       gradientUnits="userSpaceOnUse"
       x1="107.07617"
       y1="918.76953"
       x2="22.475895"
       y2="1086.4548" />
    <linearGradient
       inkscape:collect="always"
       xlink:href="#linearGradient3180"
       id="linearGradient3112"
       gradientUnits="userSpaceOnUse"
       x1="107.07617"
       y1="918.76953"
       x2="22.475895"
       y2="1086.4548" />
    <linearGradient
       inkscape:collect="always"
       xlink:href="#linearGradient3180"
       id="linearGradient3114"
       gradientUnits="userSpaceOnUse"
       x1="107.07617"
       y1="918.76953"
       x2="22.475895"
       y2="1086.4548" />
    <linearGradient
       inkscape:collect="always"
       xlink:href="#SVGID_1_"
       id="linearGradient3137"
       gradientUnits="userSpaceOnUse"
       x1="521.49902"
       y1="442.9624"
       x2="521.49902"
       y2="207.4496" />
    <linearGradient
       inkscape:collect="always"
       xlink:href="#linearGradient3180"
       id="linearGradient3139"
       gradientUnits="userSpaceOnUse"
       x1="107.07617"
       y1="918.76953"
       x2="22.475895"
       y2="1086.4548" />
    <linearGradient
       inkscape:collect="always"
       xlink:href="#linearGradient3180"
       id="linearGradient3141"
       gradientUnits="userSpaceOnUse"
       x1="107.07617"
       y1="918.76953"
       x2="22.475895"
       y2="1086.4548" />
  </defs>
  <sodipodi:namedview
     id="base"
     pagecolor="#ffffff"
     bordercolor="#666666"
     borderopacity="1.0"
     inkscape:pageopacity="0.0"
     inkscape:pageshadow="2"
     inkscape:zoom="4"
     inkscape:cx="71.671979"
     inkscape:cy="58.137505"
     inkscape:document-units="px"
     inkscape:current-layer="g3784"
     showgrid="false"
     inkscape:window-width="1366"
     inkscape:window-height="715"
     inkscape:window-x="-8"
     inkscape:window-y="-8"
     inkscape:window-maximized="1"
     showguides="true"
     inkscape:guide-bbox="true"
     inkscape:object-paths="false" />
  <metadata
     id="metadata7">
    <rdf:RDF>
      <cc:Work
         rdf:about="">
        <dc:format>image/svg+xml</dc:format>
        <dc:type
           rdf:resource="http://purl.org/dc/dcmitype/StillImage" />
        <dc:title />
      </cc:Work>
    </rdf:RDF>
  </metadata>
  <g
     inkscape:label="Layer 1"
     inkscape:groupmode="layer"
     id="layer1"
     transform="translate(0,-924.36218)">
    <g
       id="g3175"
       style="fill:url(#linearGradient3186);fill-opacity:1"
       transform="matrix(1.0188584,0,0,1.0199498,-11.866446,-2.9706472)">
      <g
         id="g3784"
         style="fill:url(#linearGradient3792)"
         transform="translate(153.87063,7.7498926)">
        <g
           id="g3122"
           style="fill:url(#linearGradient3141)"
           transform="matrix(1.3981864,0,0,1.3981864,211.76135,-374.46937)">
          <rect
             transform="matrix(0.98149066,0,0,0.98044041,-142.22382,901.44468)"
             y="26.227131"
             x="-106.82363"
             height="62.376915"
             width="62.3769"
             id="rect3118"
             style="fill:#ffffff;fill-opacity:1;stroke:none" />
          <path
             sodipodi:nodetypes="ccccccc"
             transform="matrix(0.98149066,0,0,0.98044041,-142.22382,901.44468)"
             inkscape:connector-curvature="0"
             id="path3120"
             d="m -31.135042,37.662929 1.53244,-0.616038 -1.881974,19.829591 1.969062,18.224484 -1.571424,-0.646851 -8.036691,-17.891132 z"
             style="fill:#ffffff;stroke:none" />
          <g
             transform="matrix(0.21795756,0,0,0.21772433,-341.79699,894.44909)"
             id="g3074"
             style="fill:url(#linearGradient3139)">
            <path
               style="fill:#007682"
               inkscape:connector-curvature="0"
               d="m 574.31,211.71 c -42.832,0 -77.547,34.718 -77.547,77.546 0,42.831 34.715,77.548 77.547,77.548 42.828,0 77.545,-34.718 77.545,-77.548 -10e-4,-42.827 -34.717,-77.546 -77.545,-77.546 z m 13.259,87.765 c -1.447,1.577 -4.62,4.297 -9.629,4.805 -0.612,0.062 -1.221,0.092 -1.81,0.092 -4.932,0 -8.309,-2.139 -10.438,-4.243 -0.304,-0.302 -0.581,-0.601 -0.84,-0.894 -0.974,-1.128 -4.131,-5.292 -3.676,-11.563 0.361,-4.934 3.392,-8.255 5.154,-9.791 1.968,-1.708 5.321,-3.739 10.134,-3.739 0.454,0 0.924,0.017 1.401,0.054 3.488,0.268 6.649,1.867 9.395,4.76 2.845,2.994 4.065,5.997 4.089,10.051 0.032,5.68 -2.64,9.218 -3.78,10.468 z"
               id="path3076" />
            <path
               style="fill:#009ba9"
               inkscape:connector-curvature="0"
               d="m 540.98,167.213 c -67.293,18.097 -107.319,87.572 -89.222,154.865 18.099,67.296 87.573,107.321 154.868,89.224 C 673.918,393.204 713.947,323.73 695.848,256.436 677.75,189.141 608.275,149.114 540.98,167.213 z m -1.198,19.763 c 20.926,-7.45 40.156,-6.873 56.438,-4.052 -4.45,24.885 -9.379,49.535 -13.972,74.35 -4.79,-1.157 -11.246,-0.327 -17.21,1.794 -5.676,2.025 -10.915,5.215 -13.864,8.98 -5.078,-3.806 -9.906,-7.987 -14.784,-12.049 -14.568,-12.141 -29.156,-24.609 -43.861,-36.745 10.751,-12.801 25.993,-24.711 47.253,-32.278 z m 18.308,210.133 c -0.085,0.029 -0.166,0.057 -0.251,0.088 -17.76,-3.501 -34.065,-10.861 -48.18,-22.151 -14.031,-11.221 -26.859,-26.728 -34.825,-49.61 23.89,-8.502 47.773,-17.002 71.663,-25.501 5.001,13.912 14.977,19.285 25.923,21.424 -4.64,25.313 -9.498,50.526 -14.33,75.75 z m 25.969,-86.282 0,0 c -0.004,0.002 -0.004,0.002 -0.004,0.002 -7.343,2.614 -14.076,1.124 -18.942,-1.629 -4.397,-2.483 -9.151,-7.367 -11.111,-14.491 -1.74,-6.303 -0.316,-12.334 2.317,-17 2.507,-4.431 6.607,-8.391 12.563,-10.511 0.624,-0.221 1.264,-0.423 1.926,-0.604 6.099,-1.658 11.673,-0.351 16.146,1.921 4.566,2.312 8.74,5.92 11.119,12.498 2.349,6.491 1.641,12.566 -0.208,16.958 -1.871,4.42 -5.566,9.098 -11.388,11.854 -0.813,0.383 -1.622,0.719 -2.418,1.002 z m 97.683,1.985 c -3.681,17.807 -11.138,33.351 -22.469,47.296 -19.566,-16.218 -39.04,-32.641 -58.567,-48.961 6.638,-8.741 11.058,-18.528 6.229,-32.722 23.424,-8.337 46.848,-16.674 70.271,-25.006 8.102,22.087 8.132,42.038 4.536,59.393 z"
               id="path3078" />
            <path
               style="fill:#009ba9"
               inkscape:connector-curvature="0"
               d="m 782.761,370.362 c 42.612,-88 4.204,-162.989 -0.42,-171.438 -4.146,8.037 -13.232,42.876 -13.232,85.344 -0.001,43.968 9.74,79.759 13.652,86.094 z"
               id="path3080" />
            <linearGradient
               id="linearGradient3082"
               gradientUnits="userSpaceOnUse"
               x1="521.49902"
               y1="442.9624"
               x2="521.49902"
               y2="207.4496">
              <stop
                 offset="0"
                 style="stop-color:#004A52"
                 id="stop3084" />
              <stop
                 offset="0.0801"
                 style="stop-color:#004E57"
                 id="stop3086" />
              <stop
                 offset="0.4561"
                 style="stop-color:#00606A"
                 id="stop3088" />
              <stop
                 offset="0.7761"
                 style="stop-color:#006B76"
                 id="stop3090" />
              <stop
                 offset="1"
                 style="stop-color:#006F7A"
                 id="stop3092" />
            </linearGradient>
            <path
               style="fill:url(#linearGradient3137)"
               inkscape:connector-curvature="0"
               d="m 770.352,347.858 c -2.452,-11.375 -6.564,-34.764 -6.564,-63.59 0,-28.827 4.112,-52.214 6.564,-63.591 1.895,-8.774 3.611,-14.819 5.124,-18.981 l -50.675,28.368 0,-73.18 c 0,-10.29 -8.339,-18.625 -18.622,-18.625 l -264.748,0 c -10.288,0 -18.625,8.336 -18.625,18.625 l 0,225.96699 0,28.38087 0,10.39914 c 0,10.285 8.337,18.626 18.625,18.626 l 264.748,0 c 10.283,0 18.622,-8.341 18.622,-18.626 l 0,-76.936 c 10.627,4.784 37.739,16.973 50.895,22.735 -1.567,-4.181 -3.358,-10.368 -5.344,-19.572 z m -196.55,75.762 c -74.202,0 -134.361,-60.157 -134.361,-134.364 0,-74.21 60.16,-134.363 134.361,-134.363 74.206,0 134.367,60.153 134.367,134.363 0,74.207 -60.161,134.364 -134.367,134.364 z"
               id="path3094"
               sodipodi:nodetypes="cscccssssccsssscccsssss" />
          </g>
        </g>
        <path
           style="opacity:1;fill:#d15d3f;stroke:none;fill-opacity:1"
           d="m -137.28641,976.50522 0,-30.99179 27.31679,-27.28756 31.057948,0 z"
           id="path3032"
           inkscape:connector-curvature="0"
           sodipodi:nodetypes="ccccc" />
        <text
           xml:space="preserve"
           style="font-size:27.57134056px;font-style:normal;font-variant:normal;font-weight:normal;font-stretch:normal;text-align:start;line-height:125%;letter-spacing:0px;word-spacing:0px;writing-mode:lr-tb;text-anchor:start;fill:#ffffff;fill-opacity:1;stroke:none;font-family:Calibri;-inkscape-font-specification:Calibri"
           x="-769.31976"
           y="591.63654"
           id="text3028"
           sodipodi:linespacing="125%"
           transform="matrix(0.70748544,-0.70672839,0.70748538,0.70672833,0,0)"><tspan
             sodipodi:role="line"
             id="tspan3030"
             x="-769.31976"
             y="591.63654">LITE</tspan></text>
      </g>
    </g>
  </g>
</svg>
