<?xml version="1.0" encoding="UTF-8" standalone="no"?>
<!-- Created with Inkscape (http://www.inkscape.org/) -->

<svg
   xmlns:dc="http://purl.org/dc/elements/1.1/"
   xmlns:cc="http://creativecommons.org/ns#"
   xmlns:rdf="http://www.w3.org/1999/02/22-rdf-syntax-ns#"
   xmlns:svg="http://www.w3.org/2000/svg"
   xmlns="http://www.w3.org/2000/svg"
   xmlns:xlink="http://www.w3.org/1999/xlink"
   xmlns:sodipodi="http://sodipodi.sourceforge.net/DTD/sodipodi-0.dtd"
   xmlns:inkscape="http://www.inkscape.org/namespaces/inkscape"
   width="640"
   height="960"
   id="svg2"
   version="1.1"
   inkscape:version="0.48.4 r9939"
   inkscape:export-filename="C:\Users\Leonardo\Dropbox\Projetos\Yester\iSeconds.Droid\Resources\drawable\splash_title.png"
   inkscape:export-xdpi="120"
   inkscape:export-ydpi="120"
   sodipodi:docname="splash_screen.svg">
  <defs
     id="defs4">
    <linearGradient
       inkscape:collect="always"
       id="linearGradient3006">
      <stop
         style="stop-color:#999999;stop-opacity:1;"
         offset="0"
         id="stop3008" />
      <stop
         style="stop-color:#ffffff;stop-opacity:1"
         offset="1"
         id="stop3010" />
    </linearGradient>
    <linearGradient
       inkscape:collect="always"
       xlink:href="#linearGradient3006"
       id="linearGradient3012"
       x1="-3.1428571"
       y1="-5.1785712"
       x2="-4.1651783"
       y2="-5.34375"
       gradientUnits="userSpaceOnUse" />
    <linearGradient
       gradientTransform="matrix(0.92045767,0,0,0.7923052,-0.30828569,-1.0792459)"
       inkscape:collect="always"
       xlink:href="#linearGradient3006-7"
       id="linearGradient3012-1"
       x1="-3.1154208"
       y1="-5.0112333"
       x2="-3.7502065"
       y2="-5.4234347"
       gradientUnits="userSpaceOnUse" />
    <linearGradient
       inkscape:collect="always"
       id="linearGradient3006-7">
      <stop
         style="stop-color:#d1dce2;stop-opacity:1"
         offset="0"
         id="stop3008-4" />
      <stop
         style="stop-color:#ffffff;stop-opacity:1"
         offset="1"
         id="stop3010-0" />
    </linearGradient>
    <linearGradient
       inkscape:collect="always"
       xlink:href="#linearGradient3180"
       id="linearGradient3066"
       gradientUnits="userSpaceOnUse"
       x1="107.07617"
       y1="918.76953"
       x2="22.475895"
       y2="1086.4548" />
    <linearGradient
       inkscape:collect="always"
       id="linearGradient3180">
      <stop
         style="stop-color:#d1dce2;stop-opacity:1"
         offset="0"
         id="stop3182" />
      <stop
         style="stop-color:#ffffff;stop-opacity:1"
         offset="1"
         id="stop3184" />
    </linearGradient>
    <linearGradient
       id="SVGID_1_"
       gradientUnits="userSpaceOnUse"
       x1="521.49902"
       y1="442.9624"
       x2="521.49902"
       y2="207.4496">
      <stop
         offset="0"
         style="stop-color:#004A52"
         id="stop14" />
      <stop
         offset="0.0801"
         style="stop-color:#004E57"
         id="stop16" />
      <stop
         offset="0.4561"
         style="stop-color:#00606A"
         id="stop18" />
      <stop
         offset="0.7761"
         style="stop-color:#006B76"
         id="stop20" />
      <stop
         offset="1"
         style="stop-color:#006F7A"
         id="stop22" />
    </linearGradient>
    <linearGradient
       inkscape:collect="always"
       xlink:href="#linearGradient3180"
       id="linearGradient3062"
       gradientUnits="userSpaceOnUse"
       x1="107.07617"
       y1="918.76953"
       x2="22.475895"
       y2="1086.4548" />
    <linearGradient
       inkscape:collect="always"
       xlink:href="#linearGradient3180"
       id="linearGradient3064"
       gradientUnits="userSpaceOnUse"
       x1="107.07617"
       y1="918.76953"
       x2="22.475895"
       y2="1086.4548" />
    <linearGradient
       y2="1086.4548"
       x2="22.475895"
       y1="918.76953"
       x1="107.07617"
       gradientUnits="userSpaceOnUse"
       id="linearGradient3072"
       xlink:href="#linearGradient3180"
       inkscape:collect="always" />
    <linearGradient
       inkscape:collect="always"
       xlink:href="#SVGID_1_-1"
       id="linearGradient3086"
       gradientUnits="userSpaceOnUse"
       x1="521.49902"
       y1="442.9624"
       x2="521.49902"
       y2="207.4496" />
    <linearGradient
       id="SVGID_1_-1"
       gradientUnits="userSpaceOnUse"
       x1="521.49902"
       y1="442.9624"
       x2="521.49902"
       y2="207.4496">
      <stop
         offset="0"
         style="stop-color:#004A52"
         id="stop14-7" />
      <stop
         offset="0.0801"
         style="stop-color:#004E57"
         id="stop16-4" />
      <stop
         offset="0.4561"
         style="stop-color:#00606A"
         id="stop18-0" />
      <stop
         offset="0.7761"
         style="stop-color:#006B76"
         id="stop20-9" />
      <stop
         offset="1"
         style="stop-color:#006F7A"
         id="stop22-4" />
    </linearGradient>
  </defs>
  <sodipodi:namedview
     id="base"
     pagecolor="#ffffff"
     bordercolor="#666666"
     borderopacity="1.0"
     inkscape:pageopacity="0.0"
     inkscape:pageshadow="2"
     inkscape:zoom="0.24748737"
     inkscape:cx="413.39434"
     inkscape:cy="173.92837"
     inkscape:document-units="px"
     inkscape:current-layer="g2993"
     showgrid="false"
     inkscape:window-width="1366"
     inkscape:window-height="715"
     inkscape:window-x="-8"
     inkscape:window-y="-8"
     inkscape:window-maximized="1" />
  <metadata
     id="metadata7">
    <rdf:RDF>
      <cc:Work
         rdf:about="">
        <dc:format>image/svg+xml</dc:format>
        <dc:type
           rdf:resource="http://purl.org/dc/dcmitype/StillImage" />
        <dc:title />
      </cc:Work>
    </rdf:RDF>
  </metadata>
  <g
     inkscape:label="Layer 1"
     inkscape:groupmode="layer"
     id="layer1"
     transform="translate(0,-92.36218)">
    <g
       transform="matrix(1.25,0,0,-1.25,335,572.36218)"
       inkscape:label="childish_cross"
       id="g2993">
      <g
         id="g3291"
         inkscape:export-filename="C:\Users\Leonardo\Dropbox\Projetos\Yester\iSeconds.Droid\Resources\drawable-xhdpi\splash_title.png"
         inkscape:export-xdpi="90"
         inkscape:export-ydpi="90"
         transform="translate(-763.19208,575.69958)">
        <rect
           style="fill:#ffffff;fill-opacity:1;stroke:none"
           id="rect3199"
           width="512"
           height="768"
           x="495.19208"
           y="191.69958"
           transform="scale(1,-1)" />
      </g>
      <g
         id="g3066"
         transform="translate(-706.96014,141.71428)">
        <path
           id="path3"
           d="m 797.98845,-197.79315 c -3.33756,3.31892 -0.13414,10.07567 0.51894,14.07173 1.18422,7.23301 -6.10875,7.72452 -10.39544,3.57976 -2.94564,-2.84673 -4.20303,-9.66513 -7.20286,-11.42825 -0.13821,3.44053 1.99786,10.75958 -0.0925,13.5948 -2.98121,4.04517 -7.16493,-1.83663 -7.87017,-4.11733 -2.09067,-6.75404 -3.71559,-14.08867 -4.51771,-21.34743 -0.065,-0.0549 -0.11619,-0.10467 -0.18936,-0.16191 -2.75832,-2.19365 -5.73173,-4.15628 -8.90466,-5.7043 -5.2819,-2.57845 -11.8808,-4.85679 -15.38502,1.31463 8.90332,2.39181 21.13877,10.96519 19.042,21.73494 -1.84678,9.4812 -13.69879,10.87916 -20.50262,5.95733 -6.3916,-4.62204 -10.18814,-14.03278 -10.1983,-22.76537 -6.01628,-4.89303 -15.02392,-10.23217 -19.28453,-4.98923 -2.87417,3.53436 -2.14149,10.18001 -2.14149,14.34306 0,8.69059 4.80699,12.28254 6.09012,14.04566 3.36872,1.76718 12.1003,0 15.96154,0 3.42224,0 5.3825,2.80913 3.92696,6.23137 -0.87631,2.05172 -12.89294,2.12861 -14.84507,1.41388 5.0563,7.8302 10.57667,17.46518 6.6575,26.95688 -3.47271,8.41418 -11.25989,6.38956 -15.72408,0.12499 -4.86322,-6.8167 -7.3973,-15.44632 -9.21123,-23.5282 -0.91052,-4.04145 -4.44454,-2.35116 -8.08561,-2.39825 -2.29425,-0.0288 -6.38617,0.21646 -6.16227,-2.94462 0.27201,-3.7376 6.14296,-3.13127 8.76545,-3.67765 4.87101,-1.01722 3.41953,-2.24581 3.08554,-6.83771 -0.46441,-6.34213 -0.37701,-12.96983 0.80314,-19.28724 -4.45606,-2.70209 -9.57841,-4.22673 -13.74248,-7.31871 1.08361,7.14935 -2.02801,13.53992 -2.02801,20.48704 0.8719,3.2041 10.68438,9.6963 3.35382,12.69343 -7.87898,3.20545 -13.19171,-7.19237 -16.97165,-12.27475 -3.83042,-5.15115 -7.67574,-9.89208 -12.41634,-14.17234 -6.94915,-5.53595 -18.75035,-12.32827 -23.60307,-3.7935 8.90874,2.39181 21.14419,10.9652 19.04268,21.73495 -1.8434,9.48119 -13.69879,10.87915 -20.50263,5.95733 -6.82991,-4.93469 -10.69793,-15.34978 -10.14511,-24.55457 -3.75353,-5.0939 -8.02566,-10.01572 -13.52976,-13.09212 1.50568,9.75625 3.219,19.47219 4.91742,29.19999 0.3533,2.02022 2.94665,9.18785 0.55688,10.72673 -3.08046,1.97686 -7.59817,-0.56095 -9.51507,-3.05573 -4.57564,-5.86215 -2.47853,-32.48369 -12.6775,-32.48369 -7.46098,0 -0.82956,22.30741 -0.0732,26.26451 0.5413,2.81692 4.04483,9.02729 -0.53724,10.3653 -4.35647,1.27059 -7.55684,-2.37081 -9.15059,-5.85538 -3.71931,-8.11711 -6.25881,-19.63817 -5.24396,-28.57671 1.3668,-12.03967 13.76349,-12.87329 21.47818,-6.09283 -0.33467,-1.82579 -0.66493,-3.64649 -0.99893,-5.46956 -8.17842,-7.13105 -21.1706,-19.9078 -20.26855,-31.81739 0.53791,-7.47419 7.80276,-10.41882 14.47178,-9.2661 7.64085,1.32242 11.68975,8.49819 13.43322,15.41279 1.46774,5.832 1.5951,11.91196 2.5439,17.83034 0.8299,5.15419 6.85396,7.62018 10.71758,10.64068 1.37255,1.06804 4.49467,3.25762 6.57688,5.55052 2.59674,-4.51771 7.11073,-7.58394 13.90304,-7.58394 6.80282,0 13.61445,2.99713 19.10433,7.27704 0.16124,-0.29978 0.32925,-0.70389 0.50268,-1.23367 2.62452,-7.95282 14.23737,-6.88073 20.58019,-5.63892 8.00567,1.55953 16.1912,4.65964 22.80331,9.5425 5.99629,-12.40109 18.50849,-6.01898 29.14647,0.15786 2.27054,-5.86385 7.09853,-10.10481 15.08929,-10.10481 6.9793,0 13.5721,3.2085 19.19308,7.31126 0.87901,-4.37138 3.92932,-11.32155 8.24752,-5.99629 1.84407,2.26275 2.63976,5.58947 3.61905,8.32272 2.27867,6.35128 4.55531,12.70257 6.82991,19.04843 0.24254,0 0.48541,0 0.72659,0 0.52165,-9.58824 7.11818,-16.1309 16.9293,-12.05558 3.91138,1.6222 5.39402,4.95197 5.79441,11.18673 -1.72315,-2.64112 -7.92031,-7.80446 -12.29575,-3.4551 z m -80.80425,44.96201 c 1.61847,3.37278 5.58574,5.18569 5.58574,0.0535 0,-3.74167 -2.34235,-7.83291 -3.97912,-11.06038 -1.83358,-3.60719 -2.68516,-7.77939 -7.0108,-7.33972 1.37865,6.15008 2.6655,12.6267 5.40418,18.34658 z M 592.78608,-255.27515 c -8.83489,-2.76984 2.65094,16.29959 6.93798,20.7438 -0.29199,-0.16395 -0.32993,-0.0874 0.77604,0.69881 -0.64868,-5.28122 -1.24079,-19.39089 -7.71402,-21.44261 z m 53.2949,68.85672 c 6.85667,-4.77819 -5.63588,-14.18656 -10.40696,-14.18656 0,3.35314 3.78773,18.80319 10.40696,14.18656 z m 30.19451,-26.61509 c -1.63677,-1.1788 -4.03298,-1.87795 -6.05387,-1.72146 -2.1591,0.16937 -3.10858,3.63091 -5.07493,3.804 0.22221,0.23339 0.44509,0.46441 0.66121,0.69915 1.28279,1.42506 2.27765,2.06933 2.50461,2.80506 3.06894,3.23018 6.14262,6.45697 9.21596,9.68444 1.25603,-4.06042 2.73834,-12.39703 -1.25298,-15.27119 z m 77.03684,26.61509 c 6.85566,-4.77819 -5.63689,-14.18656 -10.4073,-14.18656 0,3.35314 3.7874,18.80319 10.4073,14.18656 z"
           inkscape:connector-curvature="0"
           style="fill:#004f58;fill-opacity:1" />
        <g
           id="g5"
           transform="matrix(0.33873515,0,0,-0.33873515,525.59153,27.652366)">
          <path
             id="path7"
             d="m 574.31,211.71 c -42.832,0 -77.547,34.718 -77.547,77.546 0,42.831 34.715,77.548 77.547,77.548 42.828,0 77.545,-34.718 77.545,-77.548 -10e-4,-42.827 -34.717,-77.546 -77.545,-77.546 z m 13.259,87.765 c -1.447,1.577 -4.62,4.297 -9.629,4.805 -0.612,0.062 -1.221,0.092 -1.81,0.092 -4.932,0 -8.309,-2.139 -10.438,-4.243 -0.304,-0.302 -0.581,-0.601 -0.84,-0.894 -0.974,-1.128 -4.131,-5.292 -3.676,-11.563 0.361,-4.934 3.392,-8.255 5.154,-9.791 1.968,-1.708 5.321,-3.739 10.134,-3.739 0.454,0 0.924,0.017 1.401,0.054 3.488,0.268 6.649,1.867 9.395,4.76 2.845,2.994 4.065,5.997 4.089,10.051 0.032,5.68 -2.64,9.218 -3.78,10.468 z"
             inkscape:connector-curvature="0"
             style="fill:#007682" />
          <path
             id="path9"
             d="m 540.98,167.213 c -67.293,18.097 -107.319,87.572 -89.222,154.865 18.099,67.296 87.573,107.321 154.868,89.224 C 673.918,393.204 713.947,323.73 695.848,256.436 677.75,189.141 608.275,149.114 540.98,167.213 z m -1.198,19.763 c 20.926,-7.45 40.156,-6.873 56.438,-4.052 -4.45,24.885 -9.379,49.535 -13.972,74.35 -4.79,-1.157 -11.246,-0.327 -17.21,1.794 -5.676,2.025 -10.915,5.215 -13.864,8.98 -5.078,-3.806 -9.906,-7.987 -14.784,-12.049 -14.568,-12.141 -29.156,-24.609 -43.861,-36.745 10.751,-12.801 25.993,-24.711 47.253,-32.278 z m 18.308,210.133 c -0.085,0.029 -0.166,0.057 -0.251,0.088 -17.76,-3.501 -34.065,-10.861 -48.18,-22.151 -14.031,-11.221 -26.859,-26.728 -34.825,-49.61 23.89,-8.502 47.773,-17.002 71.663,-25.501 5.001,13.912 14.977,19.285 25.923,21.424 -4.64,25.313 -9.498,50.526 -14.33,75.75 z m 25.969,-86.282 0,0 c -0.004,0.002 -0.004,0.002 -0.004,0.002 -7.343,2.614 -14.076,1.124 -18.942,-1.629 -4.397,-2.483 -9.151,-7.367 -11.111,-14.491 -1.74,-6.303 -0.316,-12.334 2.317,-17 2.507,-4.431 6.607,-8.391 12.563,-10.511 0.624,-0.221 1.264,-0.423 1.926,-0.604 6.099,-1.658 11.673,-0.351 16.146,1.921 4.566,2.312 8.74,5.92 11.119,12.498 2.349,6.491 1.641,12.566 -0.208,16.958 -1.871,4.42 -5.566,9.098 -11.388,11.854 -0.813,0.383 -1.622,0.719 -2.418,1.002 z m 97.683,1.985 c -3.681,17.807 -11.138,33.351 -22.469,47.296 -19.566,-16.218 -39.04,-32.641 -58.567,-48.961 6.638,-8.741 11.058,-18.528 6.229,-32.722 23.424,-8.337 46.848,-16.674 70.271,-25.006 8.102,22.087 8.132,42.038 4.536,59.393 z"
             inkscape:connector-curvature="0"
             style="fill:#009ba9" />
          <path
             id="path11"
             d="m 782.761,370.362 c 42.612,-88 4.204,-162.989 -0.42,-171.438 -4.146,8.037 -13.232,42.876 -13.232,85.344 -0.001,43.968 9.74,79.759 13.652,86.094 z"
             inkscape:connector-curvature="0"
             style="fill:#009ba9" />
          <linearGradient
             y2="207.4496"
             x2="521.49902"
             y1="442.9624"
             x1="521.49902"
             gradientUnits="userSpaceOnUse"
             id="linearGradient3040">
            <stop
               id="stop3042"
               style="stop-color:#004A52"
               offset="0" />
            <stop
               id="stop3044"
               style="stop-color:#004E57"
               offset="0.0801" />
            <stop
               id="stop3046"
               style="stop-color:#00606A"
               offset="0.4561" />
            <stop
               id="stop3048"
               style="stop-color:#006B76"
               offset="0.7761" />
            <stop
               id="stop3050"
               style="stop-color:#006F7A"
               offset="1" />
          </linearGradient>
          <path
             id="path24"
             d="m 770.352,347.858 c -2.452,-11.375 -6.564,-34.764 -6.564,-63.59 0,-28.827 4.112,-52.214 6.564,-63.591 1.895,-8.774 3.611,-14.819 5.124,-18.981 l -50.675,28.368 v -73.18 c 0,-10.29 -8.339,-18.625 -18.622,-18.625 H 441.431 c -10.288,0 -18.625,8.336 -18.625,18.625 v 249.567 c -22.713,12.173 -54.53,23.231 -86.032,15.171 -8.888,-2.273 -16.68,-5.463 -23.555,-9.28 l -45.916,17.038 c 11.134,4.268 23.753,7.394 37.987,9.096 52.63,6.296 91.54,-4.729 117.516,-17.572 v 0.727 c 0,10.285 8.337,18.626 18.625,18.626 h 264.748 c 10.283,0 18.622,-8.341 18.622,-18.626 v -76.936 c 10.627,4.784 37.739,16.973 50.895,22.735 -1.567,-4.181 -3.358,-10.368 -5.344,-19.572 z m -196.55,75.762 c -74.202,0 -134.361,-60.157 -134.361,-134.364 0,-74.21 60.16,-134.363 134.361,-134.363 74.206,0 134.367,60.153 134.367,134.363 0,74.207 -60.161,134.364 -134.367,134.364 z"
             inkscape:connector-curvature="0"
             style="fill:url(#linearGradient3086)" />
          <g
             id="g26">
            <path
               id="path28"
               d="m 278.084,375.613 -74.901,-11.609 c 3.868,11.679 9.745,22.834 17.909,32.83 l 67.89,-4.511 c -4.428,-5.328 -8.02,-10.98 -10.898,-16.71 z"
               inkscape:connector-curvature="0"
               style="fill:#00606a" />
            <path
               id="path30"
               d="m 269.814,321.41 c -9.978,-9.978 -45.233,-46.122 -54.99,-58.182 -9.042,14.469 -15.015,32.414 -16.866,51.268 l 70.353,25.667 c -0.52,-7.741 0.127,-14.325 1.503,-18.753 z"
               inkscape:connector-curvature="0"
               style="fill:#00606a" />
          </g>
          <g
             id="g32">
            <path
               id="path34"
               d="m 268.917,346.049 -71.378,-26.04 c -0.699,12.74 0.51,25.776 3.94,38.345 l 73.937,11.459 c -3.426,-8.185 -5.488,-16.341 -6.499,-23.764 z"
               inkscape:connector-curvature="0"
               style="fill:#009ba9" />
            <path
               id="path36"
               d="m 293.523,397.357 -68.018,4.518 c 9.063,9.693 20.513,18.074 34.624,24.492 l 47.28,-17.546 c -5.243,-3.467 -9.851,-7.327 -13.886,-11.464 z"
               inkscape:connector-curvature="0"
               style="fill:#009ba9" />
          </g>
        </g>
      </g>
    </g>
  </g>
</svg>
